<svg xmlns="http://www.w3.org/2000/svg" viewBox="0 0 18 18"><defs><style>.a{fill:#333740;}</style></defs><title>MOS icons NEW</title><path class="a" d="M.73,2H2.36a1.41,1.41,0,0,1,.89.3,1.24,1.24,0,0,1,.48.79l1.91,7.64h9.09l1.72-6.54H18l-1.91,6.9a1.24,1.24,0,0,1-.48.8,1.38,1.38,0,0,1-.88.3H5.64a1.41,1.41,0,0,1-.89-.3,1.24,1.24,0,0,1-.48-.8L2.36,3.49H.73A.7.7,0,0,1,0,2.76.7.7,0,0,1,.73,2Zm5,10.82a2.11,2.11,0,0,1,1.54-.63A2.15,2.15,0,0,1,9.45,14.4a2.17,2.17,0,0,1-2.18,2.18A2.19,2.19,0,0,1,5.09,14.4,2.1,2.1,0,0,1,5.73,12.85ZM8,14.4a.64.64,0,0,0-.73-.73.64.64,0,0,0-.72.73.64.64,0,0,0,.72.72A.64.64,0,0,0,8,14.4ZM9.45,2h1.46V5.67h2.18L10.18,8.58,7.27,5.67H9.45Zm2.82,10.82a2.13,2.13,0,0,1,1.55-.63A2.17,2.17,0,0,1,16,14.4a2.19,2.19,0,0,1-2.18,2.18,2.17,2.17,0,0,1-2.18-2.18A2.13,2.13,0,0,1,12.27,12.85Zm2.28,1.55a.65.65,0,0,0-.73-.73.64.64,0,0,0-.73.73.64.64,0,0,0,.73.72A.64.64,0,0,0,14.55,14.4Z"/></svg>