<svg xmlns="http://www.w3.org/2000/svg" viewBox="0 0 18 18"><defs><style>.a{fill:#333740;}</style></defs><title>MOS icons NEW</title><path class="a" d="M-.21,5.54h18V15.83h-18V5.54ZM16.46,2.17l.48,2.73H15.62l-.2-1.24L8.14,4.9H.51ZM3,6.83a1.45,1.45,0,0,1,0,.32A1.55,1.55,0,0,1,2.54,8.3a1.59,1.59,0,0,1-1.15.46,1.52,1.52,0,0,1-.32,0v3.94a1.52,1.52,0,0,1,.32,0,1.55,1.55,0,0,1,1.15.46A1.55,1.55,0,0,1,3,14.22a1.45,1.45,0,0,1,0,.32H14.61a2.51,2.51,0,0,1,0-.32A1.55,1.55,0,0,1,15,13.08a1.51,1.51,0,0,1,1.14-.46,1.45,1.45,0,0,1,.32,0V8.72a1.45,1.45,0,0,1-.32,0,1.59,1.59,0,0,1-1.61-1.61,2.51,2.51,0,0,1,0-.32ZM6.52,8.42a3.19,3.19,0,0,1,4.54,0,3.21,3.21,0,0,1,0,4.54,3.1,3.1,0,0,1-2.27.94,3.23,3.23,0,0,1-3.22-3.21A3.09,3.09,0,0,1,6.52,8.42Zm3.63.9a1.86,1.86,0,0,0-1.36-.56,1.91,1.91,0,0,0-1.93,1.93,1.93,1.93,0,0,0,1.93,1.93,1.95,1.95,0,0,0,1.93-1.93A1.86,1.86,0,0,0,10.15,9.32Z"/></svg>