<svg xmlns="http://www.w3.org/2000/svg" viewBox="0 0 18 18"><defs><style>.a{fill:#333740;}</style></defs><title>MOS icons NEW</title><path class="a" d="M1.91,2.57H16.05A1.91,1.91,0,0,1,18,4.5v9a1.91,1.91,0,0,1-1.93,1.93H1.91A1.91,1.91,0,0,1,0,13.5v-9A1.91,1.91,0,0,1,1.91,2.57Zm0,1.29a.56.56,0,0,0-.64.64v9a.56.56,0,0,0,.64.64H16.05a.57.57,0,0,0,.65-.64v-9a.57.57,0,0,0-.65-.64ZM1.83,6.75H3.6a.65.65,0,0,1,.4.12.53.53,0,0,1,.2.24l0,.12.4,2a2.7,2.7,0,0,0-.92-1.41A5.13,5.13,0,0,0,2.39,7Zm4.06,0H7.13L5.36,11.17H4.08l-1-3.58A3.7,3.7,0,0,1,4.72,9.48l.08.44Zm1.72,0H8.82L8.1,11.17H6.89Zm3.54-.08a2.35,2.35,0,0,1,.54.06l.42.1.17.08-.21,1a1.37,1.37,0,0,0-.8-.33c-.53,0-.8.16-.8.49,0,.1.27.3.82.6a1.27,1.27,0,0,1,.82,1.1,1.35,1.35,0,0,1-.66,1.13,2.31,2.31,0,0,1-1.34.46,4.07,4.07,0,0,1-.73-.06,1.41,1.41,0,0,1-.44-.14l-.12,0,.2-1a2.25,2.25,0,0,0,1.13.25c.5,0,.76-.14.76-.41a.5.5,0,0,0-.24-.38,2.29,2.29,0,0,0-.56-.3,1.26,1.26,0,0,1-.57-.44A1.31,1.31,0,0,1,9.3,8a1.21,1.21,0,0,1,.48-1A2.21,2.21,0,0,1,11.15,6.67ZM14,6.75h1.25l.88,4.42h-1l-.12-.6H13.48l-.24.6H12.07ZM14.45,8,13.8,9.72h1Z"/></svg>