<svg xmlns="http://www.w3.org/2000/svg" viewBox="0 0 18 18"><defs><style>.a{fill:#333740;}</style></defs><title>MOS icons NEW</title><path class="a" d="M9,2.81a4.23,4.23,0,0,1,2.51.79,4.73,4.73,0,0,1,1.64,2.06,3.7,3.7,0,0,1,2.53,1.13,3.73,3.73,0,0,1,1.13,2.53,3.33,3.33,0,0,1-2.18,5.87H3.36A3.23,3.23,0,0,1,1,14.2a3.23,3.23,0,0,1-1-2.39,3.14,3.14,0,0,1,.69-2A3.18,3.18,0,0,1,2.44,8.65a2.7,2.7,0,0,1,.81-1.21,2.77,2.77,0,0,1,1.34-.62A4.61,4.61,0,0,1,6,4,4.16,4.16,0,0,1,9,2.81ZM9,3.94A3.35,3.35,0,0,0,5.61,7.31v.57H5a1.63,1.63,0,0,0-1,.36,1.67,1.67,0,0,0-.6.94l-.07.38-.39.07a2,2,0,0,0-1.3.72,2.18,2.18,0,0,0-.52,1.46,2.13,2.13,0,0,0,.65,1.6,2.13,2.13,0,0,0,1.6.65H14.61a2.22,2.22,0,0,0,2.25-2.25A2.1,2.1,0,0,0,15.94,10l-.21-.18V9.56a2.67,2.67,0,0,0-.83-2,2.71,2.71,0,0,0-2-.83h-.56l-.14-.42A3.35,3.35,0,0,0,9,3.94ZM9,7.1l.42.35L11.65,9.7l-.84.85L9.54,9.25v3.69H8.42V9.25l-1.27,1.3L6.31,9.7,8.56,7.45Z"/></svg>