<svg xmlns="http://www.w3.org/2000/svg" viewBox="0 0 18 18"><defs><style>.a{fill:#333740;}</style></defs><title>MOS icons NEW</title><path class="a" d="M9,3.38A3.71,3.71,0,0,1,12.29,5.2,3.88,3.88,0,0,1,13,5.06a3.36,3.36,0,0,1,3.37,3.38A3.13,3.13,0,0,1,18,11.25a3.36,3.36,0,0,1-3.38,3.37H3.39A3.35,3.35,0,0,1,0,11.25,3.35,3.35,0,0,1,3.39,7.88l.36,0A2.66,2.66,0,0,1,5.22,6.47,3.83,3.83,0,0,1,6.58,4.25,3.74,3.74,0,0,1,9,3.38ZM9,4.5a2.74,2.74,0,0,0-1.85.69,2.66,2.66,0,0,0-.93,1.7l0,.39-.39.1A1.79,1.79,0,0,0,5,7.82a1.59,1.59,0,0,0-.46.83l-.1.53-.56-.11A1.73,1.73,0,0,0,3.39,9a2.25,2.25,0,1,0,0,4.5H14.64a2.17,2.17,0,0,0,1.6-.65,2.15,2.15,0,0,0,.65-1.6,2.08,2.08,0,0,0-1.37-2.07L15.14,9l.07-.39V8.44A2.22,2.22,0,0,0,13,6.19a2,2,0,0,0-.74.14l-.46.14-.21-.42A3.09,3.09,0,0,0,10.5,4.92,2.74,2.74,0,0,0,9,4.5Z"/></svg>