<svg xmlns="http://www.w3.org/2000/svg" viewBox="0 0 18 18"><defs><style>.a{fill:#333740;}</style></defs><title>MOS icons NEW</title><path class="a" d="M1.93,1.81H13.5a1.91,1.91,0,0,1,1.93,1.93v.64h.64A1.91,1.91,0,0,1,18,6.31V14A1.91,1.91,0,0,1,16.07,16H4.5A1.91,1.91,0,0,1,2.57,14v-.64H1.93A1.91,1.91,0,0,1,0,11.45V3.74A1.91,1.91,0,0,1,1.93,1.81Zm0,1.28a.57.57,0,0,0-.64.65v7.71a.56.56,0,0,0,.64.64H13.5a.56.56,0,0,0,.64-.64V5.67H1.93V4.38H14.14V3.74a.57.57,0,0,0-.64-.65Zm13.5,5.15v3.21a1.91,1.91,0,0,1-1.93,1.93H3.86V14a.57.57,0,0,0,.64.65H16.07a.57.57,0,0,0,.64-.65V8.24Zm0-2.57V7h1.28V6.31a.56.56,0,0,0-.64-.64Z"/></svg>