<svg xmlns="http://www.w3.org/2000/svg" viewBox="0 0 18 18"><defs><style>.a{fill:#333740;}</style></defs><title>MOS icons NEW</title><path class="a" d="M9,.65l.26.09,4.16,1.68.43.18V7.23l3.72,1.64L18,9v5.63l-.34.17-4.16,2.34-.34.17-.31-.17L9,15.27,5.12,17.18l-.3.17-.35-.17L.32,14.84,0,14.67V9L.4,8.87,4.13,7.23V2.6l.43-.18L8.71.74Zm-7.61,10v3.25L4.13,15.4V12ZM4.82,8.48,2.31,9.56l2.51,1.26L7.33,9.56Zm.69-4.41v3.2L8.28,8.52V5.15Zm2.77,6.62L5.51,12v3.46l2.77-1.39ZM9,2.16l-2.25.91L9,3.94l2.25-.87Zm3.46,1.91L9.66,5.15V8.52l2.77-1.25ZM9.66,10.69v3.37l2.77,1.39V12Zm3.47-2.21-1.73.74-.78.34,2.51,1.26,2.51-1.26Zm3.46,2.12L13.82,12V15.4l2.77-1.55Z"/></svg>