<svg xmlns="http://www.w3.org/2000/svg" viewBox="0 0 18 18"><defs><style>.a{fill:#333740;}</style></defs><title>MOS icons NEW</title><path class="a" d="M2.67,4.15A8.63,8.63,0,0,1,9,1.5a8.65,8.65,0,0,1,6.35,2.65A8.63,8.63,0,0,1,18,10.5,8.72,8.72,0,0,1,16,16.22l-.19.28H2.27l-.19-.28A8.72,8.72,0,0,1,0,10.5,8.63,8.63,0,0,1,2.67,4.15Zm11.65,1A7.23,7.23,0,0,0,9,3a7.23,7.23,0,0,0-5.3,2.2,7.23,7.23,0,0,0-2.2,5.3A7.31,7.31,0,0,0,3.07,15H15a7.37,7.37,0,0,0,1.55-4.5A7.27,7.27,0,0,0,14.32,5.2ZM2.48,10A.73.73,0,0,1,3,9.75a.75.75,0,1,1,0,1.5A.76.76,0,0,1,2.48,10Zm.8-3a.73.73,0,0,1,.54-.21A.72.72,0,0,1,4.35,7,.77.77,0,0,1,4.35,8a.72.72,0,0,1-.53.21A.76.76,0,0,1,3.28,7Zm0,6a.73.73,0,0,1,.54-.21.72.72,0,0,1,.53.21.77.77,0,0,1,0,1.08.72.72,0,0,1-.53.21A.76.76,0,0,1,3.28,13Zm2.2-8.2a.8.8,0,1,1-.21.54A.73.73,0,0,1,5.48,4.76Zm8.51,2,.75,1.31L10.52,10.5a1.41,1.41,0,0,1-.45,1.08A1.47,1.47,0,0,1,9,12,1.49,1.49,0,0,1,8,9.45,1.44,1.44,0,0,1,9,9a1.61,1.61,0,0,1,.75.19ZM8.48,4a.75.75,0,0,1,1.29.54.75.75,0,1,1-1.5,0A.73.73,0,0,1,8.48,4Zm3,.8a.8.8,0,1,1-.21.54A.73.73,0,0,1,11.48,4.76Zm2.2,8.2a.8.8,0,1,1-.21.54A.73.73,0,0,1,13.68,13Zm.8-3a.8.8,0,1,1-.21.54A.73.73,0,0,1,14.48,10Z"/></svg>