<svg xmlns="http://www.w3.org/2000/svg" viewBox="0 0 18 18"><defs><style>.a{fill:#333740;}</style></defs><title>MOS icons NEW</title><path class="a" d="M2.08-.09h9.26l.26.18,4.15,4.15.17.26V17.91H2.08v-18ZM3.46,1.3V16.53H14.54V5.45H10.38V1.3ZM7.62,8.65l.51.44,1.56,1.6.87-.91.52-.43.52.43,2.07,2.08-1,1-1.55-1.6-.87.91-.52.43-.52-.43L7.62,10.6,5.37,12.89l-1-1L7.1,9.09Zm4.15-6.36V4.07h1.77Zm.28,5.43a.65.65,0,0,1,.48-.19.7.7,0,0,1,.49.19.68.68,0,0,1,0,1,.7.7,0,0,1-.49.19.65.65,0,0,1-.48-.19.75.75,0,0,1,0-1Z"/></svg>