<svg xmlns="http://www.w3.org/2000/svg" viewBox="0 0 18 18"><defs><style>.a{fill:#333740;}</style></defs><title>MOS icons NEW</title><path class="a" d="M8.73,2.5a2.05,2.05,0,0,1,1.84,1,2.4,2.4,0,0,1,1.11-.28,2.05,2.05,0,0,1,1.84,1A2.4,2.4,0,0,1,14.63,4a2.19,2.19,0,0,1,2.21,2.21v6.64a5,5,0,0,1-1.52,3.65A5,5,0,0,1,11.68,18H7.8a4.91,4.91,0,0,1-3.87-1.75l-1.75-2a3.11,3.11,0,0,1-.83-2A3,3,0,0,1,2,10.16l1.57-2V5.45A2.22,2.22,0,0,1,5.78,3.24a2.39,2.39,0,0,1,1.1.28A2.07,2.07,0,0,1,8.73,2.5ZM8.73,4A.65.65,0,0,0,8,4.72V6.93H6.51V5.45a.64.64,0,0,0-.73-.73A.65.65,0,0,0,5,5.45v5.91H3.56v-.79l-.37.51a1.73,1.73,0,0,0-.37,1.09,1.69,1.69,0,0,0,.46,1.13l1.76,2A3.44,3.44,0,0,0,7.8,16.52h3.88a3.7,3.7,0,0,0,3.69-3.69V6.19a.66.66,0,0,0-.74-.74.66.66,0,0,0-.74.74v.74H12.42V5.45a.65.65,0,0,0-.74-.73.65.65,0,0,0-.74.73V6.93H9.47V4.72A.65.65,0,0,0,8.73,4Z"/></svg>