<svg xmlns="http://www.w3.org/2000/svg" viewBox="0 0 18 18"><defs><style>.a{fill:#333740;}</style></defs><title>MOS icons NEW</title><path class="a" d="M2.61,2.65A8.65,8.65,0,0,1,9,0a8.63,8.63,0,0,1,6.35,2.65A8.63,8.63,0,0,1,18,9a8.63,8.63,0,0,1-2.65,6.35A8.63,8.63,0,0,1,9,18a8.65,8.65,0,0,1-6.35-2.65A8.63,8.63,0,0,1,0,9,8.63,8.63,0,0,1,2.61,2.65ZM14.26,3.7A7.23,7.23,0,0,0,9,1.5a7.23,7.23,0,0,0-5.3,2.2A7.27,7.27,0,0,0,1.46,9a7.27,7.27,0,0,0,2.2,5.3A7.23,7.23,0,0,0,9,16.5a7.23,7.23,0,0,0,5.3-2.2A7.23,7.23,0,0,0,16.46,9,7.23,7.23,0,0,0,14.26,3.7ZM4.79,6.33a1.12,1.12,0,0,1,1.59,0,1.12,1.12,0,0,1,0,1.59,1.12,1.12,0,0,1-1.59,0,1.12,1.12,0,0,1,0-1.59ZM5.21,12h7.5v1.5H5.21Zm6.33-5.67a1.12,1.12,0,1,1,1.59,1.59,1.13,1.13,0,0,1-1.92-.8A1.07,1.07,0,0,1,11.54,6.33Z"/></svg>