<svg xmlns="http://www.w3.org/2000/svg" viewBox="0 0 18 18"><defs><style>.a{fill:none;stroke:#333740;stroke-miterlimit:10;stroke-width:1.5px;}</style></defs><title>MOS icons NEW</title><rect class="a" x="2.02" y="4.54" width="13.96" height="12.69"/><path class="a" d="M4.52.73h9A2.5,2.5,0,0,1,16,3.23V4.54a0,0,0,0,1,0,0H2a0,0,0,0,1,0,0V3.23A2.5,2.5,0,0,1,4.52.73Z"/><line class="a" x1="7.73" y1="8.35" x2="12.81" y2="8.35"/><line class="a" x1="7.73" y1="10.88" x2="12.81" y2="10.88"/><line class="a" x1="7.73" y1="13.42" x2="12.81" y2="13.42"/><line class="a" x1="5.19" y1="8.35" x2="6.46" y2="8.35"/><line class="a" x1="5.19" y1="10.88" x2="6.46" y2="10.88"/><line class="a" x1="5.19" y1="13.42" x2="6.46" y2="13.42"/></svg>