<svg xmlns="http://www.w3.org/2000/svg" viewBox="0 0 18 18"><defs><style>.a{fill:none;stroke:#333740;stroke-miterlimit:10;stroke-width:1.5px;}</style></defs><title>MOS icons NEW</title><path class="a" d="M15.71,1.34A2,2,0,0,0,14.29.75H3.71A2,2,0,0,0,2.29,4.18a1.89,1.89,0,0,0,1,.55V17.25h11V15.32h2V2.76A2,2,0,0,0,15.71,1.34Zm.59,13.73h-2V4.72h0a2,2,0,0,1-1.42-.58,2,2,0,0,1-.59-1.41,2,2,0,0,1,.59-1.4A2,2,0,0,1,14.29.75a2,2,0,0,1,1.42.58,2,2,0,0,1,.59,1.4Z"/><line class="a" x1="6" y1="8.55" x2="11.2" y2="8.55"/><line class="a" x1="6" y1="11.15" x2="11.2" y2="11.15"/><line class="a" x1="6" y1="13.75" x2="11.2" y2="13.75"/><line class="a" x1="3.32" y1="4.73" x2="14.4" y2="4.73"/></svg>