<svg xmlns="http://www.w3.org/2000/svg" viewBox="0 0 18 18"><defs><style>.a{fill:#333740;}</style></defs><title>MOS icons NEW</title><path class="a" d="M15.54,0a2.39,2.39,0,0,1,1.72.74A2.33,2.33,0,0,1,18,2.44a2.49,2.49,0,0,1-.69,1.74l-.1.09.47.42-.51.51L5.57,16.79l-.19.14L5.15,17l-4.08.83L0,18l.19-1.07L1,12.85l.05-.23.14-.19L12.8.88l.51-.51.47.47,0-.1A2.39,2.39,0,0,1,15.54,0ZM2.41,13.64l-.32,1.48.79.79,1.48-.32L4,14Zm8.82-9-7.8,7.75,1.39.28.47.09.09.47.28,1.39,7.75-7.8Zm2.13-2.13L12.25,3.53l2.22,2.22,1.07-1.11Zm2.18-1a1,1,0,0,0-.65.28l0,.1,1.29,1.29.1,0a.87.87,0,0,0,0-1.35A1.09,1.09,0,0,0,15.54,1.48Z"/></svg>