<svg xmlns="http://www.w3.org/2000/svg" viewBox="0 0 18 18"><defs><style>.a{fill:#333740;}</style></defs><title>MOS icons NEW</title><path class="a" d="M3.94,0A1.71,1.71,0,0,1,5,.34l0,0,0,0L7.8,3.27l0,0,0,0a1.25,1.25,0,0,1,.48,1,1.47,1.47,0,0,1-.43,1.06L6.47,6.81A8.62,8.62,0,0,0,8.41,9.66a10.14,10.14,0,0,0,2.8,1.89l1.34-1.33,0-.05a1.72,1.72,0,0,1,2.16,0l0,.09L17.55,13a1.57,1.57,0,0,1,0,2.16l-2.11,2.15h0a2.32,2.32,0,0,1-2.41.52,23.28,23.28,0,0,1-7.85-5A21.22,21.22,0,0,1,.13,5a2,2,0,0,1,.6-2.33v0L2.89.43v0l0,0A1.68,1.68,0,0,1,3.94,0Zm0,1.38a.22.22,0,0,0-.15.08L1.68,3.57v.05a.77.77,0,0,0-.26.9,19.48,19.48,0,0,0,4.7,7.34,21.32,21.32,0,0,0,7.29,4.65,1,1,0,0,0,1.08-.21l2.11-2.07c.06-.09.06-.16,0-.22l-2.85-2.8c-.05-.09-.11-.09-.17,0l-1.72,1.72-.35.31L11.08,13a11.87,11.87,0,0,1-3.49-2.24l-.13-.13A7.77,7.77,0,0,1,6.08,9,10,10,0,0,1,5.22,7.5L5,6.94l-.13-.43.3-.3L6.85,4.48c.09-.06.12-.11.09-.17h0l-.05,0L4.09,1.46A.19.19,0,0,0,3.94,1.38Z"/></svg>