<svg xmlns="http://www.w3.org/2000/svg" viewBox="0 0 18 18"><defs><style>.a{fill:#333740;}</style></defs><title>MOS icons NEW</title><path class="a" d="M6.64,6.55h4.91V0H18.1V6.55H16.46V8.18H14.82V6.55H13.19V8.18H9.91V9.82h1.64v1.63H6.64V18H.1V11.45H5V9.82H8.28V8.18H6.64ZM.1,0H6.64V6.55H3.37V8.18H1.73V6.55H.1V0ZM1.73,8.18V9.82H.1V8.18Zm0-6.54V4.91H5V1.64Zm0,11.45v3.27H5V13.09ZM2.55,2.45H4.19V4.09H2.55Zm0,11.46H4.19v1.64H2.55ZM5,9.82H3.37V8.18H5ZM8.28,0H9.91V1.64h.82V3.27H9.91V5.73H8.28V4.91H7.46V3.27h.82Zm8.18,13.09v1.64h-.82v1.63H14V14.73H10.73V18H9.1V13.09h4.09V11.45h1.63v1.64ZM14,16.36V18H12.37V16.36ZM13.19,1.64V4.91h3.27V1.64Zm1.63,8.18H13.19V8.18h1.63ZM14,2.45h1.63V4.09H14Zm2.45,7.37v1.63H14.82V9.82Zm0-1.64H18.1V9.82H16.46Zm0,3.27H18.1v1.64H16.46Zm0,4.91H18.1V18H16.46Z"/></svg>