<svg xmlns="http://www.w3.org/2000/svg" viewBox="0 0 18 18"><defs><style>.a{fill:#333740;}</style></defs><title>MOS icons NEW</title><path class="a" d="M16.51,0h.78l.66,0L18,.7a19.72,19.72,0,0,1-.09,2.62c-.2,2-.67,3.41-1.39,4.13s-2.33,2-5.23,4.23a10.82,10.82,0,0,1-.87.65l.09,1.18a2.54,2.54,0,0,1-1.05,2.31L7.71,17.25,6.79,18l-.21-1.13L6.1,14.55,3.44,11.9l-2.31-.48L0,11.24l.74-1L2.18,8.54a2.56,2.56,0,0,1,2.31-1l1.22.08c.08-.11.17-.24.26-.39a1.89,1.89,0,0,1,.35-.43,59.7,59.7,0,0,1,4.26-5.27c.73-.76,2.1-1.22,4.1-1.4C15.29,0,15.9,0,16.51,0ZM2.83,12.51l1,1A4.61,4.61,0,0,0,3,15a4.25,4.25,0,0,0,1.48-.78l1,.95a5,5,0,0,1-2.09,1.22l-1.26.35-1,.18.17-1.05c.09-.38.21-.78.35-1.22A5.83,5.83,0,0,1,2.83,12.51ZM4.4,8.89a1.26,1.26,0,0,0-1.13.52l-.74.87.91.18a3.2,3.2,0,0,0,.5-.61l.72-1ZM15.9,1.4a9.13,9.13,0,0,0-1.13.09,5.71,5.71,0,0,0-3.23,1c-.61.64-2,2.36-4.18,5.14q-.69,1-2.7,3.62l2.18,2.13q.48-.39,3.57-2.74,4.18-3.23,5.14-4.14a5.57,5.57,0,0,0,1-3.22q.09-.91.09-1.83h-.7ZM9.1,13.33l-.95.72a3.74,3.74,0,0,0-.61.5l.17.92.87-.74A1.25,1.25,0,0,0,9.1,13.6Zm2.64-9.06a1.29,1.29,0,0,1,1-.43,1.36,1.36,0,0,1,1,.43,1.37,1.37,0,0,1,0,2,1.36,1.36,0,0,1-1,.43,1.29,1.29,0,0,1-1-.43,1.41,1.41,0,0,1,0-2Z"/></svg>