<svg xmlns="http://www.w3.org/2000/svg" viewBox="0 0 18 18"><defs><style>.a{fill:#333740;}</style></defs><title>MOS icons NEW</title><path class="a" d="M11.83.69h5.54V2.08H14.86A8.59,8.59,0,0,1,18.06,9a8.67,8.67,0,0,1-2.64,6.36A8.67,8.67,0,0,1,9.06,18,8.67,8.67,0,0,1,2.7,15.36,8.67,8.67,0,0,1,.06,9V8.31H1.45V9a7.33,7.33,0,0,0,2.23,5.39,7.35,7.35,0,0,0,5.38,2.23,7.37,7.37,0,0,0,5.39-2.23A7.33,7.33,0,0,0,16.68,9a7.38,7.38,0,0,0-.93-3.66A8,8,0,0,0,13.22,2.6V6.23H11.83V.69ZM.75,5.54,2,6.14v.05l-.18.47v0l-.17.56L.32,6.88l.13-.56,0-.09.17-.56v0h0ZM2.23,3.2l1,.87-.17.17v0l-.3.39,0,.09-.18.3L1.36,4.33l.26-.39v0L2,3.42l0,0ZM4.3,1.38l.78,1.17-.34.22h0l-.39.35h0l-.13.13-.95-1L3.39,2h0V2l.47-.35H4ZM6.9.3l.35,1.34-.52.13-.05.05L6.21,2H6.12L5.56.74l0-.05h.09L6.25.48h0v0ZM8.37,0h.69V1.38H8.37Z"/></svg>