<svg xmlns="http://www.w3.org/2000/svg" viewBox="0 0 18 18"><defs><style>.a{fill:#333740;}</style></defs><title>MOS icons NEW</title><path class="a" d="M2.65,2.74A8.67,8.67,0,0,1,9,.09a8.67,8.67,0,0,1,6.35,2.65A8.65,8.65,0,0,1,18,9.09a8.63,8.63,0,0,1-2.65,6.35A8.63,8.63,0,0,1,9,18.09a8.63,8.63,0,0,1-6.35-2.65A8.63,8.63,0,0,1,0,9.09,8.65,8.65,0,0,1,2.65,2.74ZM14.3,3.8A7.24,7.24,0,0,0,9,1.59,7.24,7.24,0,0,0,3.7,3.8,7.2,7.2,0,0,0,1.5,9.09a7.21,7.21,0,0,0,2.2,5.3A7.23,7.23,0,0,0,9,16.59a7.23,7.23,0,0,0,5.3-2.2,7.21,7.21,0,0,0,2.2-5.3A7.2,7.2,0,0,0,14.3,3.8ZM5.11,11.34A4.23,4.23,0,0,0,9,13.59a4.23,4.23,0,0,0,3.89-2.25l1.27.75A5.6,5.6,0,0,1,12,14.27a5.78,5.78,0,0,1-3,.82,5.78,5.78,0,0,1-3-.82,5.6,5.6,0,0,1-2.14-2.18ZM4.83,6.42a1.12,1.12,0,0,1,1.59,0,1.13,1.13,0,0,1,0,1.6A1.15,1.15,0,0,1,4.83,8a1.13,1.13,0,0,1,0-1.6Zm6.75,0a1.12,1.12,0,0,1,1.59,0,1.12,1.12,0,0,1-.79,1.92,1.11,1.11,0,0,1-.8-.32,1.13,1.13,0,0,1,0-1.6Z"/></svg>