<svg xmlns="http://www.w3.org/2000/svg" viewBox="0 0 18 18"><defs><style>.a{opacity:0.99;}.b{fill:#333740;}</style></defs><title>MOS icons NEW</title><g class="a"><path class="b" d="M15,8.52v6.94H3V8.52H15m1.25-1.25H1.71v9.44H16.29V7.27Z"/><path class="b" d="M13.32,11.11v1.78H10.68V11.11h2.64m1.25-1.25H9.43v4.28h5.14V9.86Z"/><path class="b" d="M14.05,2.54l1.79,1.78H2.16L4,2.54h10.1m.52-1.25H3.43L0,4.71v.86H18V4.71L14.57,1.29Z"/><path class="b" d="M16.75,6v.19a.75.75,0,0,1-.75.74H2a.75.75,0,0,1-.75-.75V6h15.5M18,4.71H0V6.14a2,2,0,0,0,2,2H16a2,2,0,0,0,2-2V4.71Z"/><path class="b" d="M7.32,11.11v4.35H5.54V11.11H7.32M8.57,9.86H4.29v6.85H8.57V9.86Z"/></g></svg>