<svg xmlns="http://www.w3.org/2000/svg" viewBox="0 0 18 18"><defs><style>.a{fill:#333740;}</style></defs><title>MOS icons NEW</title><path class="a" d="M11.91,0l.51.47,5.11,5.1.42.52-.42.51a3.77,3.77,0,0,1-3.28,1l-2.42,2.47a5.34,5.34,0,0,1,0,2.72,5.18,5.18,0,0,1-1.38,2.38L10,15.7l-.51-.51L6.59,12.34.93,18H0v-.94L5.66,11.4,2.72,8.47,2.21,8l.51-.47A5,5,0,0,1,7.49,6l2.8-2.76A4.63,4.63,0,0,1,11.4.51ZM12,2.09a3.3,3.3,0,0,0-.47,1.57v.25l-.17.22L8.25,7.28,8,7.53l-.38-.08a3.71,3.71,0,0,0-3.28.68L9.87,13.7A3.86,3.86,0,0,0,10.46,10l-.17-.38.34-.34,2.81-2.81.3-.3.38.13A2.57,2.57,0,0,0,15.91,6Z"/></svg>