<svg xmlns="http://www.w3.org/2000/svg" viewBox="0 0 18 18"><defs><style>.a{fill:#333740;}</style></defs><title>MOS icons NEW</title><path class="a" d="M0,1.88H10.8v2.4H14l.23.15L17.85,8l.15.22v6.23H16.12a2.41,2.41,0,0,1-.86,1.29,2.34,2.34,0,0,1-2.92,0,2.41,2.41,0,0,1-.86-1.29h-5a2.41,2.41,0,0,1-.86,1.29,2.26,2.26,0,0,1-1.46.51,2.26,2.26,0,0,1-1.46-.51,2.41,2.41,0,0,1-.86-1.29H0V1.88Zm1.2,1.2v10.2h.68A2.4,2.4,0,0,1,2.74,12a2.25,2.25,0,0,1,1.46-.5,2.25,2.25,0,0,1,1.46.5,2.4,2.4,0,0,1,.86,1.3H9.6V3.08ZM5,13a1.13,1.13,0,0,0-.84-.35,1.13,1.13,0,0,0-.84.35,1.17,1.17,0,0,0,0,1.69,1.16,1.16,0,0,0,1.68,0A1.17,1.17,0,0,0,5,13ZM10.8,5.48v7.8h.68a2.4,2.4,0,0,1,.86-1.3,2.38,2.38,0,0,1,2.92,0,2.4,2.4,0,0,1,.86,1.3h.68V8.74L13.54,5.48ZM14.64,13A1.18,1.18,0,0,0,13,13a1.17,1.17,0,0,0,0,1.69,1.16,1.16,0,0,0,1.68,0,1.17,1.17,0,0,0,0-1.69Z"/></svg>