<svg xmlns="http://www.w3.org/2000/svg" viewBox="0 0 18 18"><defs><style>.a{fill:#333740;}</style></defs><title>MOS icons NEW</title><path class="a" d="M18.1,3.42a7.6,7.6,0,0,1-1.83,1.92v.47a10.26,10.26,0,0,1-.71,3.71,11.79,11.79,0,0,1-2,3.37,9.41,9.41,0,0,1-3.33,2.49,10.62,10.62,0,0,1-4.47.93A10.28,10.28,0,0,1,.1,14.67a8.22,8.22,0,0,0,.89.05,7.15,7.15,0,0,0,4.59-1.6,3.47,3.47,0,0,1-2.16-.72,3.87,3.87,0,0,1-1.31-1.85,2.63,2.63,0,0,0,.7.09,3.53,3.53,0,0,0,1-.14A3.8,3.8,0,0,1,1.64,9.21,3.51,3.51,0,0,1,.8,6.89v0a4,4,0,0,0,1.69.47A3.54,3.54,0,0,1,.85,4.22a3.74,3.74,0,0,1,.51-1.88A10,10,0,0,0,9,6.23a3.44,3.44,0,0,1-.1-.84A3.55,3.55,0,0,1,9.94,2.77a3.56,3.56,0,0,1,2.62-1.08,3.49,3.49,0,0,1,2.68,1.17A6.92,6.92,0,0,0,17.58,2,3.51,3.51,0,0,1,16,4,8.34,8.34,0,0,0,18.1,3.42Z"/></svg>