<svg xmlns="http://www.w3.org/2000/svg" viewBox="0 0 18 18"><defs><style>.a{fill:#333740;}</style></defs><title>MOS icons NEW</title><path class="a" d="M11,15h1.59v3H11Zm4-4V12.6h3V11ZM13.36,14.5l2.12,2.12L16.6,15.5l-2.12-2.12ZM8.24,10.55l.31-1.77a3.12,3.12,0,0,1-.86-2.85L8,4.3A3.15,3.15,0,0,1,9.32,2.15a3.23,3.23,0,0,1,2.49-.54A3.26,3.26,0,0,1,14,3a3.11,3.11,0,0,1,.53,2.46l-.29,1.63a3.22,3.22,0,0,1-1.36,2.15,3.62,3.62,0,0,1-.43.24l-.31,1.77a4.6,4.6,0,0,0,1.63-.73,4.69,4.69,0,0,0,2-3.19L16,5.75a4.61,4.61,0,0,0-.79-3.68,4.68,4.68,0,0,0-3.15-2A4.71,4.71,0,0,0,8.44.87a4.64,4.64,0,0,0-2,3.19L6.16,5.63A4.65,4.65,0,0,0,7,9.31,4.6,4.6,0,0,0,8.24,10.55Zm2.4-.31L9.36,11.5a3.21,3.21,0,0,1-.94,2.82L7.23,15.48a3.11,3.11,0,0,1-2.35,1,3.33,3.33,0,0,1-3.29-3.38,3.06,3.06,0,0,1,1-2.3L3.77,9.6a3.25,3.25,0,0,1,1.75-.92A3.05,3.05,0,0,1,5.09,7.2,3.86,3.86,0,0,0,2.65,8.51L1.52,9.63A4.62,4.62,0,0,0,0,13.07a4.69,4.69,0,0,0,1.42,3.46A4.67,4.67,0,0,0,4.87,18a4.67,4.67,0,0,0,3.48-1.44l1.12-1.11A4.66,4.66,0,0,0,11,12,4.78,4.78,0,0,0,10.64,10.24Z"/></svg>