<?xml version="1.0" encoding="utf-8"?>
<svg version="1.1" id="Layer_1" xmlns="http://www.w3.org/2000/svg" xmlns:xlink="http://www.w3.org/1999/xlink" x="0px" y="0px"
	 viewBox="0 0 18 18" style="enable-background:new 0 0 18 18;" xml:space="preserve">
<path d="M10.4,14.8H5.9v-3.9h4.5c1.1,0,1.9,0.9,1.9,1.9S11.5,14.8,10.4,14.8 M5.9,3.2h3.9c1.1,0,1.9,0.9,1.9,1.9s-0.9,1.9-1.9,1.9
	H5.9 M13.1,8.7c1.2-0.9,2.1-2.3,2.1-3.6C15.3,2.2,13,0,10.1,0h-8v18h9.1c2.7,0,4.8-2.2,4.8-4.9C15.9,11.2,14.8,9.5,13.1,8.7z"/>
</svg>
