<svg viewBox="0 0 60 60"><path d="M57,5.5V12H3V5.5A2.5,2.5,0,0,1,5.5,3h49A2.5,2.5,0,0,1,57,5.5M54.5,57H5.5A2.5,2.5,0,0,1,3,54.5V15H57V54.5A2.5,2.5,0,0,1,54.5,57M5.5,0A5.51,5.51,0,0,0,0,5.5v49A5.51,5.51,0,0,0,5.5,60h49A5.51,5.51,0,0,0,60,54.5V5.5A5.51,5.51,0,0,0,54.5,0Z"/><rect x="6.04" y="6" width="3" height="3"/><rect x="12.04" y="6" width="3" height="3"/><rect x="51.04" y="6" width="3" height="3"/><polygon points="21.22 25.7 11.19 35.73 21.22 45.77 23.45 43.53 15.65 35.73 23.45 27.94 21.22 25.7"/><polygon points="38.85 25.7 36.62 27.94 44.42 35.73 36.62 43.53 38.85 45.77 48.88 35.73 38.85 25.7"/><polygon points="25.01 47.72 27.9 48.54 35.07 23.75 32.17 22.93 25.01 47.72"/></svg>