<?xml version="1.0" encoding="utf-8"?>
<!-- Generator: Adobe Illustrator 24.2.1, SVG Export Plug-In . SVG Version: 6.00 Build 0)  -->
<svg version="1.1" id="Layer_1" xmlns="http://www.w3.org/2000/svg" xmlns:xlink="http://www.w3.org/1999/xlink" x="0px" y="0px"
	 viewBox="0 0 18 18" style="enable-background:new 0 0 18 18;" xml:space="preserve">
<style type="text/css">
	.st0{fill:#333740;}
</style>
<path class="st0" d="M4.2,0.7c-1.5,0-2.8,1.2-2.8,2.8v3.5H0V9h1.4v7.6c0,0.4,0.3,0.7,0.7,0.7h2.1l0.2-0.7h9.2l0.2,0.7h2.1
	c0.4,0,0.7-0.3,0.7-0.7V9H18V6.9h-1.4V3.5c0-1.5-1.2-2.8-2.8-2.8H4.2z M4.2,2.1h9.7c0.8,0,1.4,0.6,1.4,1.4H2.8
	C2.8,2.7,3.4,2.1,4.2,2.1z M2.8,4.8h5.5v4.8H2.8V4.8z M9.7,4.8h5.5v4.8H9.7V4.8z M2.8,11.1h12.5v4.2H2.8V11.1z M3.5,12.5v1.4h2.8
	v-1.4H3.5z M11.8,12.5v1.4h2.8v-1.4H11.8z"/>
</svg>
