<?xml version="1.0" encoding="utf-8"?>
<!-- Generator: Adobe Illustrator 24.1.3, SVG Export Plug-In . SVG Version: 6.00 Build 0)  -->
<svg version="1.1" id="Layer_1" xmlns="http://www.w3.org/2000/svg" xmlns:xlink="http://www.w3.org/1999/xlink" x="0px" y="0px"
	 viewBox="0 0 18 18" style="enable-background:new 0 0 18 18;" xml:space="preserve">
<style type="text/css">
	.st0{fill:#333740;}
</style>
<path class="st0" d="M17.4,7.3c0,0-2.1,0-2.1,0h-0.3V6.9v-1c0-0.2,0-0.7-0.6-0.7c0,0-2.2,0-2.2,0h-0.3V4.8v-1c0-0.4,0-0.7-0.6-0.7
	l-1.1,0H9.7V2.8V0.7C9.7,0.3,9.6,0,9,0l0,0C6.6,0,4.3,0.9,2.6,2.6C0.9,4.3,0,6.6,0,9s0.9,4.7,2.6,6.4C4.3,17.1,6.6,18,9,18
	s4.7-0.9,6.4-2.6c1.7-1.7,2.6-4,2.6-6.4C18,8.5,17.9,7.3,17.4,7.3z M6.4,2.4c1.1,0,1.9,0.9,1.9,1.9c0,1.1-0.9,1.9-1.9,1.9
	c-1.1,0-1.9-0.9-1.9-1.9C4.5,3.3,5.4,2.4,6.4,2.4z M3.3,10.4c-1.1,0-1.9-0.9-1.9-1.9s0.9-1.9,1.9-1.9c1.1,0,1.9,0.9,1.9,1.9
	S4.3,10.4,3.3,10.4z M8,16.6c-1.1,0-1.9-0.9-1.9-1.9c0-1.1,0.9-1.9,1.9-1.9c1.1,0,1.9,0.9,1.9,1.9C9.9,15.8,9,16.6,8,16.6z
	 M8.5,11.4c-1.1,0-1.9-0.9-1.9-1.9s0.9-1.9,1.9-1.9c1.1,0,1.9,0.9,1.9,1.9S9.5,11.4,8.5,11.4z M13.7,13.5c-1.1,0-1.9-0.9-1.9-1.9
	c0-1.1,0.9-1.9,1.9-1.9c1.1,0,1.9,0.9,1.9,1.9C15.6,12.6,14.7,13.5,13.7,13.5z"/>
</svg>
