<svg xmlns="http://www.w3.org/2000/svg" width="60.04919" height="60.04834" viewBox="0 0 60.04919 60.04834">
  <defs>
    <style>
      .cls-1 {
        fill: #333740;
      }
    </style>
  </defs>
  <g id="Layer_2" data-name="Layer 2">
    <g id="Layer_1-2" data-name="Layer 1">
      <path class="cls-1" d="M15.12109,9.81812A24.6107,24.6107,0,0,1,32.035,6.32159l1.06934.15577-.01074,1.25341a4.46441,4.46441,0,0,0,2.60156,3.97657l1.08008.49707-.44239,1.10351a7.40858,7.40858,0,0,0,9.52839,9.72266l.95214-.35791.544.85889a4.43066,4.43066,0,0,0,3.75391,2.083,3.89162,3.89162,0,0,0,.57324-.05957l1.18652-.17383.29688,1.167a25.55468,25.55468,0,0,1,.457,4.73A25.05856,25.05856,0,0,1,49.835,44.53137l-1.81872-1.81872a22.5849,22.5849,0,0,0,3.10864-11.43451,22.31947,22.31947,0,0,0-.23145-3.167,6.89552,6.89552,0,0,1-5.06054-2.44336,9.62278,9.62278,0,0,1-2.584.3623,9.97123,9.97123,0,0,1-9.96-9.96,9.76012,9.76012,0,0,1,.36914-2.65088,6.98225,6.98225,0,0,1-2.99219-4.75439,20.34059,20.34059,0,0,0-2.291-.13672A22.58476,22.58476,0,0,0,16.93994,11.6369Zm25.4834-1.49451C39.116,6.84906,38.7843,5.33655,39.61835,3.82812a6.50122,6.50122,0,1,1,2.543,8.83362c-2.12616-1.17566-1.67829-3.49182-1.53113-4.25293l.0097-.05011Zm2.53284-.73877c.30823.91193-.67511,2.38653.2337,2.8891a4.00057,4.00057,0,1,0-1.56488-5.4361C41.23969,6.06232,42.78986,6.55682,43.13733,7.58484Zm10.489,5.85052a2.88915,2.88915,0,0,1,.79944-.11346,2.93749,2.93749,0,0,1,2.25379,1.08227,2.922,2.922,0,0,1,2.51525,2.11023,4.50111,4.50111,0,0,1-4.3247,5.74488,4.51973,4.51973,0,0,1-4.32288-3.25519,4.49948,4.49948,0,0,1,3.0791-5.56873Zm-.67676,4.877a1.99948,1.99948,0,1,0,3.8429-1.10626c-.09119-.31672-.36023-.33667-.66467-.33667l-.13379.00042a1.28608,1.28608,0,0,1-.57227-.0935c-.3988-.19721-.57727-.95453-.996-.95447a.38863.38863,0,0,0-.10791.01593A1.99942,1.99942,0,0,0,52.94958,18.31238ZM21.31342,31.5553a7.008,7.008,0,0,1-4.444,8.84595,3.36028,3.36028,0,0,1-1.05787.17285,4.09828,4.09828,0,0,1-3.27526-2.04279c-.03937-.05359-.08667-.11786-.13343-.18-.07452.00226-.1488.00586-.22229.00909-.1878.0083-.37231.01563-.5498.01563a3.5176,3.5176,0,0,1-3.60736-2.41876,7,7,0,1,1,13.29-4.402Zm-2.37323.78607a4.5,4.5,0,0,0-8.54352,2.82983c.19952.60254.67267.70484,1.23413.70484.28876,0,.60089-.0271.91119-.0271a2.37857,2.37857,0,0,1,.97559.16668c.90417.40363,1.37262,2.05848,2.294,2.05848a.862.862,0,0,0,.27179-.046A4.5,4.5,0,0,0,18.94019,32.34137Zm26.80505,6.13434c.07349-.02484.14941-.04944.2124-.06995.77612-.25207,3.1377-1.01922,3.1377-3.52539a6.98313,6.98313,0,0,0-12.79688-3.88525l1.82044,1.82037a4.48644,4.48644,0,0,1,8.47644,2.06488c0,1.16834-1.98731,1.003-2.71723,1.80292a3.14694,3.14694,0,0,0-.59277,1.29858l1.92694,1.92688a6.46055,6.46055,0,0,0,.47144-1.219C45.70154,38.62622,45.72327,38.54944,45.74524,38.47571ZM32.40076,41.75024A5.5,5.5,0,1,1,22.325,43.07672a3.161,3.161,0,0,1,3.09522-2.32318,3.27391,3.27391,0,0,1,2.7951-1.679h.00031a3.26866,3.26866,0,0,1,.84546.11316A5.46408,5.46408,0,0,1,32.40076,41.75024Zm-3.9867-.14776a.76561.76561,0,0,0-.19842-.028c-.6673.00006-.78717,1.05536-1.415,1.45716-.6081.38916-1.85919-.06018-2.06079.69214a3,3,0,1,0,3.67425-2.12134ZM48.40027,46.6322,60.04919,58.28107,58.282,60.04834,46.77551,48.54211A25.2325,25.2325,0,1,1,11.11035,12.87744L0,1.76727,1.76727,0l11.253,11.25281.00055-.00043,1.78046,1.78046-.00055.00036,3.54919,3.54914.00019-.0008,6.09546,6.0954-.0008.00018,3.65461,3.65461.00128.00024L31.692,29.92328l.00024.00128L35.238,33.47015l.00024-.00073,2.50739,2.50733.00024.00128,3.25177,3.25171.00128.00024L43.398,41.629l-.00073.00036,3.22259,3.22254.00037-.00061,1.78052,1.78033ZM26.22968,30.29431a1.50023,1.50023,0,0,0,2.882.58417l-1.74237-1.74237a1.43486,1.43486,0,0,1-.23382.55725C26.89209,29.96,26.22968,29.90491,26.22968,30.29431Zm18.779,16.4809L30.91754,32.68433a3.987,3.987,0,0,1-7.18786-2.39,2.74079,2.74079,0,0,1,1.48571-2.45593,3.02558,3.02558,0,0,1,.34009-.516L12.87738,14.64447A22.735,22.735,0,1,0,45.00867,46.77521ZM25.17645,19.87329l1.80933,1.80927a5.47581,5.47581,0,0,0,2.32452-4.46582A3.16217,3.16217,0,0,0,26.918,14.1701a3.13854,3.13854,0,0,0-3.10773-2.45336,5.47579,5.47579,0,0,0-4.46588,2.32458l1.80933,1.80933a2.98841,2.98841,0,0,1,2.65655-1.63391c.878,0,.64,1.1969,1.18854,1.798.48669.53333,1.81146.4231,1.81146,1.202A2.98855,2.98855,0,0,1,25.17645,19.87329Z"/>
    </g>
  </g>
</svg>
