<svg width="69" height="61" viewBox="0 0 69 61" fill="none" xmlns="http://www.w3.org/2000/svg">
<ellipse cx="38.5373" cy="30.5" rx="30.4628" ry="30.5" fill="white"/>
<path d="M9.1358 17.2237C6.3862 17.2237 4.08008 14.9148 4.08008 12.1618C4.08008 9.40885 6.3862 7.09991 9.1358 7.09991C11.8854 7.09991 14.1915 9.32005 14.1915 12.1618C14.1915 15.0036 11.9741 17.2237 9.1358 17.2237ZM9.1358 9.32005C7.53926 9.32005 6.2975 10.5633 6.2975 12.1618C6.2975 13.7603 7.62796 15.0036 9.1358 15.0036C10.6437 15.0036 11.9741 13.7603 11.9741 12.1618C11.9741 10.5633 10.7323 9.32005 9.1358 9.32005Z" fill="#D3D5D9"/>
<path d="M10.289 2.57086H8.07153V5.94546H10.289V2.57086Z" fill="#D3D5D9"/>
<path d="M10.289 18.3782H8.07153V21.7528H10.289V18.3782Z" fill="#D3D5D9"/>
<path d="M15.0863 14.249L13.9775 16.1716L16.8964 17.8589L18.0051 15.9363L15.0863 14.249Z" fill="#D3D5D9"/>
<path d="M1.41267 6.36069L0.303955 8.28333L3.22279 9.97062L4.33151 8.04799L1.41267 6.36069Z" fill="#D3D5D9"/>
<path d="M16.7846 6.36013L13.9578 8.19794L15.1654 10.06L17.9922 8.22215L16.7846 6.36013Z" fill="#D3D5D9"/>
<path d="M3.12517 14.2772L0.29834 16.1151L1.50595 17.9771L4.33277 16.1393L3.12517 14.2772Z" fill="#D3D5D9"/>
<path d="M5.23312 53.0122H0V55.2323H5.23312V53.0122Z" fill="#D3D5D9"/>
<path d="M53.2182 53.0122H7.62793V55.2323H53.2182V53.0122Z" fill="#D3D5D9"/>
<path d="M35.5675 31.4326H33.3501V34.0967H35.5675V31.4326Z" fill="#D3D5D9"/>
<path d="M35.5675 35.784H33.3501V51.7689H35.5675V35.784Z" fill="#D3D5D9"/>
<path d="M44.171 55.2324H29.2699V33.8303H23.3273C20.8437 33.8303 18.8037 31.7878 18.8037 29.3012V19.8879C18.8037 17.4013 20.8437 15.3588 23.3273 15.3588C25.8108 15.3588 27.8508 17.4013 27.8508 19.8879V24.861H29.2699V15.8916C29.2699 11.8066 32.6404 8.43201 36.7205 8.43201C40.8006 8.43201 44.171 11.8066 44.171 15.8916V33.0311H45.058V30.0117C45.058 27.7027 46.9206 25.9266 49.1381 25.9266C51.3555 25.9266 53.2181 27.7915 53.2181 30.0117V37.6489C53.2181 39.8691 51.4442 41.734 49.2268 41.734H44.0823V55.2324H44.171ZM31.4874 53.0122H41.9536V39.5138H49.2268C50.2024 39.5138 51.0007 38.6258 51.0007 37.6489V30.0117C51.0007 28.946 50.1137 28.1468 49.1381 28.1468C48.1624 28.1468 47.2754 29.0348 47.2754 30.0117V35.2512H41.9536V15.8916C41.9536 13.0499 39.6475 10.6521 36.7205 10.6521C33.7935 10.6521 31.4874 12.9611 31.4874 15.8916V27.0811H25.6334V19.8879C25.6334 18.6446 24.569 17.5789 23.3273 17.5789C22.0855 17.5789 21.0211 18.6446 21.0211 19.8879V29.3012C21.0211 30.5445 22.0855 31.6102 23.3273 31.6102H31.4874V53.0122Z" fill="#D3D5D9"/>
</svg>
