<?xml version="1.0" encoding="UTF-8"?>
<svg width="1240px" height="241px" viewBox="0 0 1240 241" version="1.1" xmlns="http://www.w3.org/2000/svg" xmlns:xlink="http://www.w3.org/1999/xlink">
    <!-- Generator: Sketch 59.1 (86144) - https://sketch.com -->
    <title>Group 2</title>
    <desc>Created with Sketch.</desc>
    <defs>
        <linearGradient x1="0%" y1="48.1113098%" x2="100%" y2="51.8886902%" id="linearGradient-1">
            <stop stop-color="#333740" offset="0%"></stop>
            <stop stop-color="#21252B" offset="100%"></stop>
        </linearGradient>
        <path d="M9,0 L1230.03905,0 C1234.99433,2.64244198e-15 1239.01742,4.00562844 1239.03896,8.96086994 L1240,230 L1240,230 C1014,217.333333 792,212.333333 574,215 C356,217.666667 164.666667,226.333333 0,241 L0,9 C-6.08718376e-16,4.02943725 4.02943725,9.13077564e-16 9,0 Z" id="path-2"></path>
    </defs>
    <g id="Page-2" stroke="none" stroke-width="1" fill="none" fill-rule="evenodd">
        <g id="Bricks-homepage-Copy-2" transform="translate(-341.000000, -196.000000)">
            <g id="Group-2" transform="translate(341.000000, 196.000000)">
                <mask id="mask-3" fill="white">
                    <use xlink:href="#path-2"></use>
                </mask>
                <use id="Rectangle" fill="url(#linearGradient-1)" xlink:href="#path-2"></use>
                <g id="Group-53" mask="url(#mask-3)" stroke="#333740" stroke-width="2">
                    <g transform="translate(831.000000, 178.666667)">
                        <path d="M39.6342521,21.419493 L9.03381248,43.525622 C7.53315429,44.6095602 5.39020758,44.3066951 4.27180321,42.8522831 L0.671017546,38.1702415 C-0.447670393,36.7158295 -0.134891484,34.6391973 1.36548314,33.5549842 L31.9662063,11.4488552 C33.4665809,10.3646422 35.6095276,10.6677821 36.727932,12.1221941 L40.3290012,16.8042357 C41.4476892,18.2586478 41.1349103,20.3355548 39.6342521,21.419493 Z" id="Stroke-1"></path>
                        <path d="M25,17.4001918 L9.70880451,28.4688645 L5.6929764,23.2374716 C4.53773016,21.7321412 4.86051955,19.5825226 6.41061162,18.4606362 L16.065588,11.4716023 C17.6156801,10.3497159 19.8292186,10.6628997 20.9844648,12.1682301 L25,17.4001918 Z" id="Stroke-3"></path>
                        <path d="M66.4315082,73.118373 L33.6111487,53.2917026 C32.001683,52.3192194 31.5153551,50.262394 32.5300997,48.7203963 L35.797174,43.7560643 C36.8119186,42.2140666 38.9590261,41.7481254 40.5684918,42.7203324 L73.3888513,62.547279 C74.998317,63.5192098 75.4846449,65.5763115 74.4699003,67.1183091 L71.202826,72.0826411 C70.1880814,73.6246388 68.0409739,74.0908562 66.4315082,73.118373 Z" id="Stroke-5"></path>
                        <path d="M65.929591,55.956044 L50,46.8224007 L53.5386558,41.7190485 C54.5567243,40.2506907 56.7108648,39.8070009 58.3256025,40.7325161 L68.3833676,46.4996933 C69.9981053,47.4254715 70.4863154,49.384334 69.4682469,50.8526918 L65.929591,55.956044 Z" id="Stroke-7"></path>
                        <path d="M167.693138,17.4335338 L132.158087,29.2850826 C130.415442,29.8662519 128.530211,28.8669277 127.968469,27.0640114 L126.159802,21.2600673 C125.598338,19.457151 126.564255,17.5067181 128.307179,16.9252618 L163.841952,5.07399994 C165.58432,4.49254364 167.469829,5.49215485 168.03157,7.29507117 L169.83996,13.0990153 C170.401979,14.9019316 169.435784,16.8523645 167.693138,17.4335338 Z" id="Stroke-13"></path>
                        <path d="M156,8.26609545 L138.188488,13.7435897 L136.16568,7.7574984 C135.58367,6.03512283 136.584727,4.17154646 138.389964,3.61661361 L149.636118,0.158153654 C151.441642,-0.397327547 153.395183,0.557902712 153.976905,2.28000411 L156,8.26609545 Z" id="Stroke-15"></path>
                        <path d="M110.556111,28.358272 L126.673269,61.4904247 C127.463558,63.1150938 126.770264,65.0857977 125.132095,65.869706 L119.859092,68.3939017 C118.220923,69.17781 116.234178,68.4898403 115.443889,66.8651712 L99.3267315,33.7330186 C98.5364424,32.1083494 99.2297364,30.1376455 100.867905,29.3537372 L106.141184,26.8295415 C107.779077,26.0456332 109.765822,26.7336029 110.556111,28.358272 Z" id="Stroke-17"></path>
                        <path d="M102.876925,42.2124542 L111,58.7082806 L105.06903,61.5125317 C103.362656,62.3195732 101.292557,61.611267 100.469226,59.9395182 L95.3403434,49.523648 C94.5170121,47.8518991 95.23958,45.8234655 96.9459541,45.0167053 L102.876925,42.2124542 Z" id="Stroke-19"></path>
                        <path d="M151.328285,65.2347054 L167.467587,31.3425475 C168.258842,29.6808847 170.243584,28.9794554 171.877819,29.7844064 L177.139008,32.375526 C178.773517,33.180477 179.463252,35.1983103 178.671721,36.8605327 L162.532694,70.7526905 C161.741164,72.4143534 159.756422,73.1157827 158.122188,72.3108317 L152.860723,69.7197121 C151.226489,68.9147611 150.536754,66.8963682 151.328285,65.2347054 Z" id="Stroke-21"></path>
                        <path d="M167,61.8005304 L175.139273,46.1391941 L181.060178,48.8113731 C182.764033,49.5799686 183.482744,51.5078712 182.657919,53.0955715 L177.51882,62.9838896 C176.693708,64.5713226 174.624761,65.2410376 172.921192,64.4724421 L167,61.8005304 Z" id="Stroke-23"></path>
                        <path d="M322.381351,13.8877285 L347.175416,41.7514487 C348.391171,43.1175759 348.245437,45.2105827 346.851438,46.4022698 L342.363682,50.2391285 C340.969683,51.4310903 338.834404,51.2882417 337.618649,49.9218398 L312.824584,22.0581196 C311.608829,20.6919924 311.754563,18.5987108 313.148562,17.4070238 L317.636038,13.570165 C319.030317,12.378478 321.165596,12.5213266 322.381351,13.8877285 Z" id="Stroke-25"></path>
                        <path d="M319.997415,29.4505495 L332,43.8104368 L327.15174,48.2229657 C325.756828,49.4927603 323.620149,49.3405839 322.403597,47.8849586 L314.825246,38.8181745 C313.608694,37.3625492 313.754243,35.132873 315.149155,33.8630784 L319.997415,29.4505495 Z" id="Stroke-27"></path>
                        <path d="M380.7736,87.5588124 L362.399687,54.6703625 C361.498831,53.0576296 362.172925,51.0487432 363.897967,50.2065382 L369.451719,47.4946657 C371.176761,46.652185 373.325545,47.2826671 374.226695,48.8954001 L392.600313,81.7838499 C393.501169,83.3965829 392.827075,85.4051936 391.102033,86.2476743 L385.548281,88.9595468 C383.823239,89.8020275 381.67475,89.1715454 380.7736,87.5588124 Z" id="Stroke-29"></path>
                        <path d="M388.474279,73.6263736 L380,58.1795137 L385.716146,55.3371245 C387.360737,54.5194692 389.409025,55.1313055 390.268148,56.6972961 L395.61883,66.4502776 C396.477953,68.0160005 395.835016,69.9663291 394.190426,70.7839844 L388.474279,73.6263736 Z" id="Stroke-31"></path>
                        <path d="M210.922573,9.07097224 L246.820221,23.101997 C248.580356,23.7900243 249.454692,25.7854173 248.762903,27.5359821 L246.535653,33.1727323 C245.843864,34.9232971 243.837562,35.7928792 242.07714,35.1048519 L206.179779,21.0735422 C204.419644,20.3855149 203.545308,18.3901219 204.237097,16.6395571 L206.46406,11.0030919 C207.155849,9.25252707 209.162151,8.38294498 210.922573,9.07097224 Z" id="Stroke-33"></path>
                        <path d="M215.640664,24.5421245 L233,30.7443924 L230.596333,36.3046871 C229.904825,37.9048019 227.899621,38.6988692 226.139625,38.0701783 L215.17918,34.154012 C213.419471,33.525321 212.545488,31.7020132 213.236997,30.1024192 L215.640664,24.5421245 Z" id="Stroke-35"></path>
                        <path d="M257.802621,57.0251689 L291.929789,38.7006198 C293.603556,37.8017311 295.72054,38.4126346 296.634712,40.0576152 L299.578035,45.3535323 C300.492207,46.9985128 299.871009,49.0797312 298.197531,49.9783359 L264.069786,68.3031691 C262.396307,69.2017737 260.279034,68.5911542 259.364862,66.9461737 L256.421828,61.6499726 C255.507945,60.0049921 256.128854,57.9237736 257.802621,57.0251689 Z" id="Stroke-37"></path>
                        <path d="M273,63.4884124 L288.599286,54.974359 L291.601374,60.4653697 C292.46512,62.0454912 291.877915,64.0440325 290.296747,64.9070576 L280.447211,70.2829619 C278.866043,71.145987 276.865834,70.5595445 276.002089,68.9796959 L273,63.4884124 Z" id="Stroke-39"></path>
                        <path d="M206.082913,61.1653547 L243.809597,57.9320133 C245.659634,57.7734945 247.305674,59.1294653 247.466902,60.9452511 L247.987163,66.7911146 C248.148672,68.6066242 246.767123,70.2221902 244.917368,70.380709 L207.190403,73.6137742 C205.340085,73.772293 203.694607,72.4163222 203.532817,70.6008126 L203.012837,64.7549491 C202.851328,62.9391633 204.232877,61.3235973 206.082913,61.1653547 Z" id="Stroke-41"></path>
                        <path d="M435.609252,42.8124919 L417.35837,75.7602526 C416.463422,77.3758945 414.302587,78.0198955 412.556977,77.1915799 L406.93732,74.5247941 C405.19171,73.6964785 404.495606,71.6968018 405.390554,70.0811599 L423.641436,37.1333992 C424.536682,35.5177573 426.69722,34.8740314 428.44283,35.7020719 L434.062784,38.3691328 C435.808394,39.1971733 436.504498,41.19685 435.609252,42.8124919 Z" id="Stroke-49"></path>
                        <path d="M420,43.5663421 L411.607978,59.8827839 L405.841252,56.9360244 C404.182114,56.0878172 403.520493,54.0407993 404.371391,52.386908 L409.67001,42.0845141 C410.520625,40.4306228 412.574137,39.7710938 414.233274,40.619301 L420,43.5663421 Z" id="Stroke-51"></path>
                    </g>
                </g>
                <g id="Group-53" mask="url(#mask-3)" stroke="#333740" stroke-width="2">
                    <g transform="translate(391.000000, 178.666667)">
                        <path d="M39.6342521,21.419493 L9.03381248,43.525622 C7.53315429,44.6095602 5.39020758,44.3066951 4.27180321,42.8522831 L0.671017546,38.1702415 C-0.447670393,36.7158295 -0.134891484,34.6391973 1.36548314,33.5549842 L31.9662063,11.4488552 C33.4665809,10.3646422 35.6095276,10.6677821 36.727932,12.1221941 L40.3290012,16.8042357 C41.4476892,18.2586478 41.1349103,20.3355548 39.6342521,21.419493 Z" id="Stroke-1"></path>
                        <path d="M25,17.4001918 L9.70880451,28.4688645 L5.6929764,23.2374716 C4.53773016,21.7321412 4.86051955,19.5825226 6.41061162,18.4606362 L16.065588,11.4716023 C17.6156801,10.3497159 19.8292186,10.6628997 20.9844648,12.1682301 L25,17.4001918 Z" id="Stroke-3"></path>
                        <path d="M66.4315082,73.118373 L33.6111487,53.2917026 C32.001683,52.3192194 31.5153551,50.262394 32.5300997,48.7203963 L35.797174,43.7560643 C36.8119186,42.2140666 38.9590261,41.7481254 40.5684918,42.7203324 L73.3888513,62.547279 C74.998317,63.5192098 75.4846449,65.5763115 74.4699003,67.1183091 L71.202826,72.0826411 C70.1880814,73.6246388 68.0409739,74.0908562 66.4315082,73.118373 Z" id="Stroke-5"></path>
                        <path d="M65.929591,55.956044 L50,46.8224007 L53.5386558,41.7190485 C54.5567243,40.2506907 56.7108648,39.8070009 58.3256025,40.7325161 L68.3833676,46.4996933 C69.9981053,47.4254715 70.4863154,49.384334 69.4682469,50.8526918 L65.929591,55.956044 Z" id="Stroke-7"></path>
                        <path d="M167.693138,17.4335338 L132.158087,29.2850826 C130.415442,29.8662519 128.530211,28.8669277 127.968469,27.0640114 L126.159802,21.2600673 C125.598338,19.457151 126.564255,17.5067181 128.307179,16.9252618 L163.841952,5.07399994 C165.58432,4.49254364 167.469829,5.49215485 168.03157,7.29507117 L169.83996,13.0990153 C170.401979,14.9019316 169.435784,16.8523645 167.693138,17.4335338 Z" id="Stroke-13"></path>
                        <path d="M156,8.26609545 L138.188488,13.7435897 L136.16568,7.7574984 C135.58367,6.03512283 136.584727,4.17154646 138.389964,3.61661361 L149.636118,0.158153654 C151.441642,-0.397327547 153.395183,0.557902712 153.976905,2.28000411 L156,8.26609545 Z" id="Stroke-15"></path>
                        <path d="M110.556111,28.358272 L126.673269,61.4904247 C127.463558,63.1150938 126.770264,65.0857977 125.132095,65.869706 L119.859092,68.3939017 C118.220923,69.17781 116.234178,68.4898403 115.443889,66.8651712 L99.3267315,33.7330186 C98.5364424,32.1083494 99.2297364,30.1376455 100.867905,29.3537372 L106.141184,26.8295415 C107.779077,26.0456332 109.765822,26.7336029 110.556111,28.358272 Z" id="Stroke-17"></path>
                        <path d="M102.876925,42.2124542 L111,58.7082806 L105.06903,61.5125317 C103.362656,62.3195732 101.292557,61.611267 100.469226,59.9395182 L95.3403434,49.523648 C94.5170121,47.8518991 95.23958,45.8234655 96.9459541,45.0167053 L102.876925,42.2124542 Z" id="Stroke-19"></path>
                        <path d="M151.328285,65.2347054 L167.467587,31.3425475 C168.258842,29.6808847 170.243584,28.9794554 171.877819,29.7844064 L177.139008,32.375526 C178.773517,33.180477 179.463252,35.1983103 178.671721,36.8605327 L162.532694,70.7526905 C161.741164,72.4143534 159.756422,73.1157827 158.122188,72.3108317 L152.860723,69.7197121 C151.226489,68.9147611 150.536754,66.8963682 151.328285,65.2347054 Z" id="Stroke-21"></path>
                        <path d="M167,61.8005304 L175.139273,46.1391941 L181.060178,48.8113731 C182.764033,49.5799686 183.482744,51.5078712 182.657919,53.0955715 L177.51882,62.9838896 C176.693708,64.5713226 174.624761,65.2410376 172.921192,64.4724421 L167,61.8005304 Z" id="Stroke-23"></path>
                        <path d="M322.381351,13.8877285 L347.175416,41.7514487 C348.391171,43.1175759 348.245437,45.2105827 346.851438,46.4022698 L342.363682,50.2391285 C340.969683,51.4310903 338.834404,51.2882417 337.618649,49.9218398 L312.824584,22.0581196 C311.608829,20.6919924 311.754563,18.5987108 313.148562,17.4070238 L317.636038,13.570165 C319.030317,12.378478 321.165596,12.5213266 322.381351,13.8877285 Z" id="Stroke-25"></path>
                        <path d="M319.997415,29.4505495 L332,43.8104368 L327.15174,48.2229657 C325.756828,49.4927603 323.620149,49.3405839 322.403597,47.8849586 L314.825246,38.8181745 C313.608694,37.3625492 313.754243,35.132873 315.149155,33.8630784 L319.997415,29.4505495 Z" id="Stroke-27"></path>
                        <path d="M380.7736,87.5588124 L362.399687,54.6703625 C361.498831,53.0576296 362.172925,51.0487432 363.897967,50.2065382 L369.451719,47.4946657 C371.176761,46.652185 373.325545,47.2826671 374.226695,48.8954001 L392.600313,81.7838499 C393.501169,83.3965829 392.827075,85.4051936 391.102033,86.2476743 L385.548281,88.9595468 C383.823239,89.8020275 381.67475,89.1715454 380.7736,87.5588124 Z" id="Stroke-29"></path>
                        <path d="M388.474279,73.6263736 L380,58.1795137 L385.716146,55.3371245 C387.360737,54.5194692 389.409025,55.1313055 390.268148,56.6972961 L395.61883,66.4502776 C396.477953,68.0160005 395.835016,69.9663291 394.190426,70.7839844 L388.474279,73.6263736 Z" id="Stroke-31"></path>
                        <path d="M210.922573,9.07097224 L246.820221,23.101997 C248.580356,23.7900243 249.454692,25.7854173 248.762903,27.5359821 L246.535653,33.1727323 C245.843864,34.9232971 243.837562,35.7928792 242.07714,35.1048519 L206.179779,21.0735422 C204.419644,20.3855149 203.545308,18.3901219 204.237097,16.6395571 L206.46406,11.0030919 C207.155849,9.25252707 209.162151,8.38294498 210.922573,9.07097224 Z" id="Stroke-33"></path>
                        <path d="M215.640664,24.5421245 L233,30.7443924 L230.596333,36.3046871 C229.904825,37.9048019 227.899621,38.6988692 226.139625,38.0701783 L215.17918,34.154012 C213.419471,33.525321 212.545488,31.7020132 213.236997,30.1024192 L215.640664,24.5421245 Z" id="Stroke-35"></path>
                        <path d="M257.802621,57.0251689 L291.929789,38.7006198 C293.603556,37.8017311 295.72054,38.4126346 296.634712,40.0576152 L299.578035,45.3535323 C300.492207,46.9985128 299.871009,49.0797312 298.197531,49.9783359 L264.069786,68.3031691 C262.396307,69.2017737 260.279034,68.5911542 259.364862,66.9461737 L256.421828,61.6499726 C255.507945,60.0049921 256.128854,57.9237736 257.802621,57.0251689 Z" id="Stroke-37"></path>
                        <path d="M273,63.4884124 L288.599286,54.974359 L291.601374,60.4653697 C292.46512,62.0454912 291.877915,64.0440325 290.296747,64.9070576 L280.447211,70.2829619 C278.866043,71.145987 276.865834,70.5595445 276.002089,68.9796959 L273,63.4884124 Z" id="Stroke-39"></path>
                        <path d="M206.082913,61.1653547 L243.809597,57.9320133 C245.659634,57.7734945 247.305674,59.1294653 247.466902,60.9452511 L247.987163,66.7911146 C248.148672,68.6066242 246.767123,70.2221902 244.917368,70.380709 L207.190403,73.6137742 C205.340085,73.772293 203.694607,72.4163222 203.532817,70.6008126 L203.012837,64.7549491 C202.851328,62.9391633 204.232877,61.3235973 206.082913,61.1653547 Z" id="Stroke-41"></path>
                        <path d="M435.609252,42.8124919 L417.35837,75.7602526 C416.463422,77.3758945 414.302587,78.0198955 412.556977,77.1915799 L406.93732,74.5247941 C405.19171,73.6964785 404.495606,71.6968018 405.390554,70.0811599 L423.641436,37.1333992 C424.536682,35.5177573 426.69722,34.8740314 428.44283,35.7020719 L434.062784,38.3691328 C435.808394,39.1971733 436.504498,41.19685 435.609252,42.8124919 Z" id="Stroke-49"></path>
                        <path d="M420,43.5663421 L411.607978,59.8827839 L405.841252,56.9360244 C404.182114,56.0878172 403.520493,54.0407993 404.371391,52.386908 L409.67001,42.0845141 C410.520625,40.4306228 412.574137,39.7710938 414.233274,40.619301 L420,43.5663421 Z" id="Stroke-51"></path>
                    </g>
                </g>
                <g id="Group-53-Copy" mask="url(#mask-3)" stroke="#333740" stroke-width="2">
                    <g transform="translate(1040.000000, 139.924908) scale(-1, 1) translate(-1040.000000, -139.924908) translate(822.000000, 84.424908)">
                        <path d="M39.6342521,21.419493 L9.03381248,43.525622 C7.53315429,44.6095602 5.39020758,44.3066951 4.27180321,42.8522831 L0.671017546,38.1702415 C-0.447670393,36.7158295 -0.134891484,34.6391973 1.36548314,33.5549842 L31.9662063,11.4488552 C33.4665809,10.3646422 35.6095276,10.6677821 36.727932,12.1221941 L40.3290012,16.8042357 C41.4476892,18.2586478 41.1349103,20.3355548 39.6342521,21.419493 Z" id="Stroke-1"></path>
                        <path d="M25,17.4001918 L9.70880451,28.4688645 L5.6929764,23.2374716 C4.53773016,21.7321412 4.86051955,19.5825226 6.41061162,18.4606362 L16.065588,11.4716023 C17.6156801,10.3497159 19.8292186,10.6628997 20.9844648,12.1682301 L25,17.4001918 Z" id="Stroke-3"></path>
                        <path d="M66.4315082,73.118373 L33.6111487,53.2917026 C32.001683,52.3192194 31.5153551,50.262394 32.5300997,48.7203963 L35.797174,43.7560643 C36.8119186,42.2140666 38.9590261,41.7481254 40.5684918,42.7203324 L73.3888513,62.547279 C74.998317,63.5192098 75.4846449,65.5763115 74.4699003,67.1183091 L71.202826,72.0826411 C70.1880814,73.6246388 68.0409739,74.0908562 66.4315082,73.118373 Z" id="Stroke-5"></path>
                        <path d="M65.929591,55.956044 L50,46.8224007 L53.5386558,41.7190485 C54.5567243,40.2506907 56.7108648,39.8070009 58.3256025,40.7325161 L68.3833676,46.4996933 C69.9981053,47.4254715 70.4863154,49.384334 69.4682469,50.8526918 L65.929591,55.956044 Z" id="Stroke-7"></path>
                        <path d="M20.9688292,68.6073563 L37.6615996,101.739782 C38.4801132,103.364178 37.7620587,105.335155 36.0653837,106.119064 L30.6040595,108.642986 C28.9073845,109.426894 26.8493991,108.738925 26.0308854,107.114255 L9.33840044,73.9821028 C8.51988675,72.3574337 9.2379413,70.3867297 10.9346163,69.6028214 L16.3962259,67.0786257 C18.0926155,66.2947174 20.1503155,66.9826872 20.9688292,68.6073563 Z" id="Stroke-9"></path>
                        <path d="M13.3692323,82.4615385 L22,98.957709 L15.6983439,101.761689 C13.8850165,102.568453 11.6858422,101.860706 10.8110528,100.18867 L5.36161484,89.7730414 C4.48682541,88.1010048 5.25455379,86.0728448 7.06757623,85.2658002 L13.3692323,82.4615385 Z" id="Stroke-11"></path>
                        <path d="M167.693138,17.4335338 L132.158087,29.2850826 C130.415442,29.8662519 128.530211,28.8669277 127.968469,27.0640114 L126.159802,21.2600673 C125.598338,19.457151 126.564255,17.5067181 128.307179,16.9252618 L163.841952,5.07399994 C165.58432,4.49254364 167.469829,5.49215485 168.03157,7.29507117 L169.83996,13.0990153 C170.401979,14.9019316 169.435784,16.8523645 167.693138,17.4335338 Z" id="Stroke-13"></path>
                        <path d="M156,8.26609545 L138.188488,13.7435897 L136.16568,7.7574984 C135.58367,6.03512283 136.584727,4.17154646 138.389964,3.61661361 L149.636118,0.158153654 C151.441642,-0.397327547 153.395183,0.557902712 153.976905,2.28000411 L156,8.26609545 Z" id="Stroke-15"></path>
                        <path d="M110.556111,28.358272 L126.673269,61.4904247 C127.463558,63.1150938 126.770264,65.0857977 125.132095,65.869706 L119.859092,68.3939017 C118.220923,69.17781 116.234178,68.4898403 115.443889,66.8651712 L99.3267315,33.7330186 C98.5364424,32.1083494 99.2297364,30.1376455 100.867905,29.3537372 L106.141184,26.8295415 C107.779077,26.0456332 109.765822,26.7336029 110.556111,28.358272 Z" id="Stroke-17"></path>
                        <path d="M102.876925,42.2124542 L111,58.7082806 L105.06903,61.5125317 C103.362656,62.3195732 101.292557,61.611267 100.469226,59.9395182 L95.3403434,49.523648 C94.5170121,47.8518991 95.23958,45.8234655 96.9459541,45.0167053 L102.876925,42.2124542 Z" id="Stroke-19"></path>
                        <path d="M151.328285,65.2347054 L167.467587,31.3425475 C168.258842,29.6808847 170.243584,28.9794554 171.877819,29.7844064 L177.139008,32.375526 C178.773517,33.180477 179.463252,35.1983103 178.671721,36.8605327 L162.532694,70.7526905 C161.741164,72.4143534 159.756422,73.1157827 158.122188,72.3108317 L152.860723,69.7197121 C151.226489,68.9147611 150.536754,66.8963682 151.328285,65.2347054 Z" id="Stroke-21"></path>
                        <path d="M167,61.8005304 L175.139273,46.1391941 L181.060178,48.8113731 C182.764033,49.5799686 183.482744,51.5078712 182.657919,53.0955715 L177.51882,62.9838896 C176.693708,64.5713226 174.624761,65.2410376 172.921192,64.4724421 L167,61.8005304 Z" id="Stroke-23"></path>
                        <path d="M322.381351,13.8877285 L347.175416,41.7514487 C348.391171,43.1175759 348.245437,45.2105827 346.851438,46.4022698 L342.363682,50.2391285 C340.969683,51.4310903 338.834404,51.2882417 337.618649,49.9218398 L312.824584,22.0581196 C311.608829,20.6919924 311.754563,18.5987108 313.148562,17.4070238 L317.636038,13.570165 C319.030317,12.378478 321.165596,12.5213266 322.381351,13.8877285 Z" id="Stroke-25"></path>
                        <path d="M319.997415,29.4505495 L332,43.8104368 L327.15174,48.2229657 C325.756828,49.4927603 323.620149,49.3405839 322.403597,47.8849586 L314.825246,38.8181745 C313.608694,37.3625492 313.754243,35.132873 315.149155,33.8630784 L319.997415,29.4505495 Z" id="Stroke-27"></path>
                        <path d="M380.7736,87.5588124 L362.399687,54.6703625 C361.498831,53.0576296 362.172925,51.0487432 363.897967,50.2065382 L369.451719,47.4946657 C371.176761,46.652185 373.325545,47.2826671 374.226695,48.8954001 L392.600313,81.7838499 C393.501169,83.3965829 392.827075,85.4051936 391.102033,86.2476743 L385.548281,88.9595468 C383.823239,89.8020275 381.67475,89.1715454 380.7736,87.5588124 Z" id="Stroke-29"></path>
                        <path d="M388.474279,73.6263736 L380,58.1795137 L385.716146,55.3371245 C387.360737,54.5194692 389.409025,55.1313055 390.268148,56.6972961 L395.61883,66.4502776 C396.477953,68.0160005 395.835016,69.9663291 394.190426,70.7839844 L388.474279,73.6263736 Z" id="Stroke-31"></path>
                        <path d="M210.922573,9.07097224 L246.820221,23.101997 C248.580356,23.7900243 249.454692,25.7854173 248.762903,27.5359821 L246.535653,33.1727323 C245.843864,34.9232971 243.837562,35.7928792 242.07714,35.1048519 L206.179779,21.0735422 C204.419644,20.3855149 203.545308,18.3901219 204.237097,16.6395571 L206.46406,11.0030919 C207.155849,9.25252707 209.162151,8.38294498 210.922573,9.07097224 Z" id="Stroke-33"></path>
                        <path d="M215.640664,24.5421245 L233,30.7443924 L230.596333,36.3046871 C229.904825,37.9048019 227.899621,38.6988692 226.139625,38.0701783 L215.17918,34.154012 C213.419471,33.525321 212.545488,31.7020132 213.236997,30.1024192 L215.640664,24.5421245 Z" id="Stroke-35"></path>
                        <path d="M257.802621,57.0251689 L291.929789,38.7006198 C293.603556,37.8017311 295.72054,38.4126346 296.634712,40.0576152 L299.578035,45.3535323 C300.492207,46.9985128 299.871009,49.0797312 298.197531,49.9783359 L264.069786,68.3031691 C262.396307,69.2017737 260.279034,68.5911542 259.364862,66.9461737 L256.421828,61.6499726 C255.507945,60.0049921 256.128854,57.9237736 257.802621,57.0251689 Z" id="Stroke-37"></path>
                        <path d="M273,63.4884124 L288.599286,54.974359 L291.601374,60.4653697 C292.46512,62.0454912 291.877915,64.0440325 290.296747,64.9070576 L280.447211,70.2829619 C278.866043,71.145987 276.865834,70.5595445 276.002089,68.9796959 L273,63.4884124 Z" id="Stroke-39"></path>
                        <path d="M206.082913,61.1653547 L243.809597,57.9320133 C245.659634,57.7734945 247.305674,59.1294653 247.466902,60.9452511 L247.987163,66.7911146 C248.148672,68.6066242 246.767123,70.2221902 244.917368,70.380709 L207.190403,73.6137742 C205.340085,73.772293 203.694607,72.4163222 203.532817,70.6008126 L203.012837,64.7549491 C202.851328,62.9391633 204.232877,61.3235973 206.082913,61.1653547 Z" id="Stroke-41"></path>
                        <path d="M215,74.0532961 L234.389956,72.6446886 L234.986317,78.3278627 C235.1582,79.9632798 233.690465,81.4178958 231.725014,81.5606466 L219.482124,82.450228 C217.516674,82.5927301 215.768245,81.3718873 215.59666,79.7367188 L215,74.0532961 Z" id="Stroke-43"></path>
                        <path d="M335.401025,107.915158 L332.013689,70.8963243 C331.84752,69.0810502 333.213737,67.4613053 335.049417,67.2969834 L340.959171,66.7681153 C342.795131,66.6037933 344.433083,67.9548235 344.599252,69.7700976 L347.986309,106.788931 C348.152478,108.604205 346.78654,110.22395 344.950581,110.388272 L339.040547,110.916864 C337.204867,111.081186 335.567194,109.730432 335.401025,107.915158 Z" id="Stroke-45"></path>
                        <path d="M347.628405,97.1868132 L346,78.1732943 L352.340983,77.567531 C354.165341,77.3927804 355.793192,78.8271433 355.958336,80.7543853 L356.986393,92.7594051 C357.151538,94.6869402 355.794024,96.4065925 353.969666,96.5810499 L347.628405,97.1868132 Z" id="Stroke-47"></path>
                        <path d="M435.609252,42.8124919 L417.35837,75.7602526 C416.463422,77.3758945 414.302587,78.0198955 412.556977,77.1915799 L406.93732,74.5247941 C405.19171,73.6964785 404.495606,71.6968018 405.390554,70.0811599 L423.641436,37.1333992 C424.536682,35.5177573 426.69722,34.8740314 428.44283,35.7020719 L434.062784,38.3691328 C435.808394,39.1971733 436.504498,41.19685 435.609252,42.8124919 Z" id="Stroke-49"></path>
                        <path d="M420,43.5663421 L411.607978,59.8827839 L405.841252,56.9360244 C404.182114,56.0878172 403.520493,54.0407993 404.371391,52.386908 L409.67001,42.0845141 C410.520625,40.4306228 412.574137,39.7710938 414.233274,40.619301 L420,43.5663421 Z" id="Stroke-51"></path>
                    </g>
                </g>
                <g id="Group-53-Copy-4" mask="url(#mask-3)" stroke="#333740" stroke-width="2">
                    <g transform="translate(591.000000, 143.816850) scale(-1, 1) translate(-591.000000, -143.816850) translate(373.000000, 88.351648)">
                        <path d="M39.6342521,21.419493 L9.03381248,43.525622 C7.53315429,44.6095602 5.39020758,44.3066951 4.27180321,42.8522831 L0.671017546,38.1702415 C-0.447670393,36.7158295 -0.134891484,34.6391973 1.36548314,33.5549842 L31.9662063,11.4488552 C33.4665809,10.3646422 35.6095276,10.6677821 36.727932,12.1221941 L40.3290012,16.8042357 C41.4476892,18.2586478 41.1349103,20.3355548 39.6342521,21.419493 Z" id="Stroke-1"></path>
                        <path d="M25,17.4001918 L9.70880451,28.4688645 L5.6929764,23.2374716 C4.53773016,21.7321412 4.86051955,19.5825226 6.41061162,18.4606362 L16.065588,11.4716023 C17.6156801,10.3497159 19.8292186,10.6628997 20.9844648,12.1682301 L25,17.4001918 Z" id="Stroke-3"></path>
                        <path d="M66.4315082,73.118373 L33.6111487,53.2917026 C32.001683,52.3192194 31.5153551,50.262394 32.5300997,48.7203963 L35.797174,43.7560643 C36.8119186,42.2140666 38.9590261,41.7481254 40.5684918,42.7203324 L73.3888513,62.547279 C74.998317,63.5192098 75.4846449,65.5763115 74.4699003,67.1183091 L71.202826,72.0826411 C70.1880814,73.6246388 68.0409739,74.0908562 66.4315082,73.118373 Z" id="Stroke-5"></path>
                        <path d="M65.929591,55.956044 L50,46.8224007 L53.5386558,41.7190485 C54.5567243,40.2506907 56.7108648,39.8070009 58.3256025,40.7325161 L68.3833676,46.4996933 C69.9981053,47.4254715 70.4863154,49.384334 69.4682469,50.8526918 L65.929591,55.956044 Z" id="Stroke-7"></path>
                        <path d="M20.9688292,68.6073563 L37.6615996,101.739782 C38.4801132,103.364178 37.7620587,105.335155 36.0653837,106.119064 L30.6040595,108.642986 C28.9073845,109.426894 26.8493991,108.738925 26.0308854,107.114255 L9.33840044,73.9821028 C8.51988675,72.3574337 9.2379413,70.3867297 10.9346163,69.6028214 L16.3962259,67.0786257 C18.0926155,66.2947174 20.1503155,66.9826872 20.9688292,68.6073563 Z" id="Stroke-9"></path>
                        <path d="M13.3692323,82.4615385 L22,98.957709 L15.6983439,101.761689 C13.8850165,102.568453 11.6858422,101.860706 10.8110528,100.18867 L5.36161484,89.7730414 C4.48682541,88.1010048 5.25455379,86.0728448 7.06757623,85.2658002 L13.3692323,82.4615385 Z" id="Stroke-11"></path>
                        <path d="M167.693138,17.4335338 L132.158087,29.2850826 C130.415442,29.8662519 128.530211,28.8669277 127.968469,27.0640114 L126.159802,21.2600673 C125.598338,19.457151 126.564255,17.5067181 128.307179,16.9252618 L163.841952,5.07399994 C165.58432,4.49254364 167.469829,5.49215485 168.03157,7.29507117 L169.83996,13.0990153 C170.401979,14.9019316 169.435784,16.8523645 167.693138,17.4335338 Z" id="Stroke-13"></path>
                        <path d="M156,8.26609545 L138.188488,13.7435897 L136.16568,7.7574984 C135.58367,6.03512283 136.584727,4.17154646 138.389964,3.61661361 L149.636118,0.158153654 C151.441642,-0.397327547 153.395183,0.557902712 153.976905,2.28000411 L156,8.26609545 Z" id="Stroke-15"></path>
                        <path d="M110.556111,28.358272 L126.673269,61.4904247 C127.463558,63.1150938 126.770264,65.0857977 125.132095,65.869706 L119.859092,68.3939017 C118.220923,69.17781 116.234178,68.4898403 115.443889,66.8651712 L99.3267315,33.7330186 C98.5364424,32.1083494 99.2297364,30.1376455 100.867905,29.3537372 L106.141184,26.8295415 C107.779077,26.0456332 109.765822,26.7336029 110.556111,28.358272 Z" id="Stroke-17"></path>
                        <path d="M102.876925,42.2124542 L111,58.7082806 L105.06903,61.5125317 C103.362656,62.3195732 101.292557,61.611267 100.469226,59.9395182 L95.3403434,49.523648 C94.5170121,47.8518991 95.23958,45.8234655 96.9459541,45.0167053 L102.876925,42.2124542 Z" id="Stroke-19"></path>
                        <path d="M151.328285,65.2347054 L167.467587,31.3425475 C168.258842,29.6808847 170.243584,28.9794554 171.877819,29.7844064 L177.139008,32.375526 C178.773517,33.180477 179.463252,35.1983103 178.671721,36.8605327 L162.532694,70.7526905 C161.741164,72.4143534 159.756422,73.1157827 158.122188,72.3108317 L152.860723,69.7197121 C151.226489,68.9147611 150.536754,66.8963682 151.328285,65.2347054 Z" id="Stroke-21"></path>
                        <path d="M167,61.8005304 L175.139273,46.1391941 L181.060178,48.8113731 C182.764033,49.5799686 183.482744,51.5078712 182.657919,53.0955715 L177.51882,62.9838896 C176.693708,64.5713226 174.624761,65.2410376 172.921192,64.4724421 L167,61.8005304 Z" id="Stroke-23"></path>
                        <path d="M322.381351,13.8877285 L347.175416,41.7514487 C348.391171,43.1175759 348.245437,45.2105827 346.851438,46.4022698 L342.363682,50.2391285 C340.969683,51.4310903 338.834404,51.2882417 337.618649,49.9218398 L312.824584,22.0581196 C311.608829,20.6919924 311.754563,18.5987108 313.148562,17.4070238 L317.636038,13.570165 C319.030317,12.378478 321.165596,12.5213266 322.381351,13.8877285 Z" id="Stroke-25"></path>
                        <path d="M319.997415,29.4505495 L332,43.8104368 L327.15174,48.2229657 C325.756828,49.4927603 323.620149,49.3405839 322.403597,47.8849586 L314.825246,38.8181745 C313.608694,37.3625492 313.754243,35.132873 315.149155,33.8630784 L319.997415,29.4505495 Z" id="Stroke-27"></path>
                        <path d="M380.7736,87.5588124 L362.399687,54.6703625 C361.498831,53.0576296 362.172925,51.0487432 363.897967,50.2065382 L369.451719,47.4946657 C371.176761,46.652185 373.325545,47.2826671 374.226695,48.8954001 L392.600313,81.7838499 C393.501169,83.3965829 392.827075,85.4051936 391.102033,86.2476743 L385.548281,88.9595468 C383.823239,89.8020275 381.67475,89.1715454 380.7736,87.5588124 Z" id="Stroke-29"></path>
                        <path d="M388.474279,73.6263736 L380,58.1795137 L385.716146,55.3371245 C387.360737,54.5194692 389.409025,55.1313055 390.268148,56.6972961 L395.61883,66.4502776 C396.477953,68.0160005 395.835016,69.9663291 394.190426,70.7839844 L388.474279,73.6263736 Z" id="Stroke-31"></path>
                        <path d="M210.922573,9.07097224 L246.820221,23.101997 C248.580356,23.7900243 249.454692,25.7854173 248.762903,27.5359821 L246.535653,33.1727323 C245.843864,34.9232971 243.837562,35.7928792 242.07714,35.1048519 L206.179779,21.0735422 C204.419644,20.3855149 203.545308,18.3901219 204.237097,16.6395571 L206.46406,11.0030919 C207.155849,9.25252707 209.162151,8.38294498 210.922573,9.07097224 Z" id="Stroke-33"></path>
                        <path d="M215.640664,24.5421245 L233,30.7443924 L230.596333,36.3046871 C229.904825,37.9048019 227.899621,38.6988692 226.139625,38.0701783 L215.17918,34.154012 C213.419471,33.525321 212.545488,31.7020132 213.236997,30.1024192 L215.640664,24.5421245 Z" id="Stroke-35"></path>
                        <path d="M257.802621,57.0251689 L291.929789,38.7006198 C293.603556,37.8017311 295.72054,38.4126346 296.634712,40.0576152 L299.578035,45.3535323 C300.492207,46.9985128 299.871009,49.0797312 298.197531,49.9783359 L264.069786,68.3031691 C262.396307,69.2017737 260.279034,68.5911542 259.364862,66.9461737 L256.421828,61.6499726 C255.507945,60.0049921 256.128854,57.9237736 257.802621,57.0251689 Z" id="Stroke-37"></path>
                        <path d="M273,63.4884124 L288.599286,54.974359 L291.601374,60.4653697 C292.46512,62.0454912 291.877915,64.0440325 290.296747,64.9070576 L280.447211,70.2829619 C278.866043,71.145987 276.865834,70.5595445 276.002089,68.9796959 L273,63.4884124 Z" id="Stroke-39"></path>
                        <path d="M206.082913,61.1653547 L243.809597,57.9320133 C245.659634,57.7734945 247.305674,59.1294653 247.466902,60.9452511 L247.987163,66.7911146 C248.148672,68.6066242 246.767123,70.2221902 244.917368,70.380709 L207.190403,73.6137742 C205.340085,73.772293 203.694607,72.4163222 203.532817,70.6008126 L203.012837,64.7549491 C202.851328,62.9391633 204.232877,61.3235973 206.082913,61.1653547 Z" id="Stroke-41"></path>
                        <path d="M215,74.0532961 L234.389956,72.6446886 L234.986317,78.3278627 C235.1582,79.9632798 233.690465,81.4178958 231.725014,81.5606466 L219.482124,82.450228 C217.516674,82.5927301 215.768245,81.3718873 215.59666,79.7367188 L215,74.0532961 Z" id="Stroke-43"></path>
                        <path d="M335.401025,107.915158 L332.013689,70.8963243 C331.84752,69.0810502 333.213737,67.4613053 335.049417,67.2969834 L340.959171,66.7681153 C342.795131,66.6037933 344.433083,67.9548235 344.599252,69.7700976 L347.986309,106.788931 C348.152478,108.604205 346.78654,110.22395 344.950581,110.388272 L339.040547,110.916864 C337.204867,111.081186 335.567194,109.730432 335.401025,107.915158 Z" id="Stroke-45"></path>
                        <path d="M347.628405,97.1868132 L346,78.1732943 L352.340983,77.567531 C354.165341,77.3927804 355.793192,78.8271433 355.958336,80.7543853 L356.986393,92.7594051 C357.151538,94.6869402 355.794024,96.4065925 353.969666,96.5810499 L347.628405,97.1868132 Z" id="Stroke-47"></path>
                        <path d="M435.609252,42.8124919 L417.35837,75.7602526 C416.463422,77.3758945 414.302587,78.0198955 412.556977,77.1915799 L406.93732,74.5247941 C405.19171,73.6964785 404.495606,71.6968018 405.390554,70.0811599 L423.641436,37.1333992 C424.536682,35.5177573 426.69722,34.8740314 428.44283,35.7020719 L434.062784,38.3691328 C435.808394,39.1971733 436.504498,41.19685 435.609252,42.8124919 Z" id="Stroke-49"></path>
                        <path d="M420,43.5663421 L411.607978,59.8827839 L405.841252,56.9360244 C404.182114,56.0878172 403.520493,54.0407993 404.371391,52.386908 L409.67001,42.0845141 C410.520625,40.4306228 412.574137,39.7710938 414.233274,40.619301 L420,43.5663421 Z" id="Stroke-51"></path>
                    </g>
                </g>
                <g id="Group-53-Copy-5" mask="url(#mask-3)" stroke="#333740" stroke-width="2">
                    <g transform="translate(583.000000, 263.617216) scale(-1, 1) translate(-583.000000, -263.617216) translate(365.000000, 208.117216)">
                        <path d="M39.6342521,21.419493 L9.03381248,43.525622 C7.53315429,44.6095602 5.39020758,44.3066951 4.27180321,42.8522831 L0.671017546,38.1702415 C-0.447670393,36.7158295 -0.134891484,34.6391973 1.36548314,33.5549842 L31.9662063,11.4488552 C33.4665809,10.3646422 35.6095276,10.6677821 36.727932,12.1221941 L40.3290012,16.8042357 C41.4476892,18.2586478 41.1349103,20.3355548 39.6342521,21.419493 Z" id="Stroke-1"></path>
                        <path d="M25,17.4001918 L9.70880451,28.4688645 L5.6929764,23.2374716 C4.53773016,21.7321412 4.86051955,19.5825226 6.41061162,18.4606362 L16.065588,11.4716023 C17.6156801,10.3497159 19.8292186,10.6628997 20.9844648,12.1682301 L25,17.4001918 Z" id="Stroke-3"></path>
                        <path d="M167.693138,17.4335338 L132.158087,29.2850826 C130.415442,29.8662519 128.530211,28.8669277 127.968469,27.0640114 L126.159802,21.2600673 C125.598338,19.457151 126.564255,17.5067181 128.307179,16.9252618 L163.841952,5.07399994 C165.58432,4.49254364 167.469829,5.49215485 168.03157,7.29507117 L169.83996,13.0990153 C170.401979,14.9019316 169.435784,16.8523645 167.693138,17.4335338 Z" id="Stroke-13"></path>
                        <path d="M156,8.26609545 L138.188488,13.7435897 L136.16568,7.7574984 C135.58367,6.03512283 136.584727,4.17154646 138.389964,3.61661361 L149.636118,0.158153654 C151.441642,-0.397327547 153.395183,0.557902712 153.976905,2.28000411 L156,8.26609545 Z" id="Stroke-15"></path>
                        <path d="M110.556111,28.358272 L126.673269,61.4904247 C127.463558,63.1150938 126.770264,65.0857977 125.132095,65.869706 L119.859092,68.3939017 C118.220923,69.17781 116.234178,68.4898403 115.443889,66.8651712 L99.3267315,33.7330186 C98.5364424,32.1083494 99.2297364,30.1376455 100.867905,29.3537372 L106.141184,26.8295415 C107.779077,26.0456332 109.765822,26.7336029 110.556111,28.358272 Z" id="Stroke-17"></path>
                        <path d="M151.328285,65.2347054 L167.467587,31.3425475 C168.258842,29.6808847 170.243584,28.9794554 171.877819,29.7844064 L177.139008,32.375526 C178.773517,33.180477 179.463252,35.1983103 178.671721,36.8605327 L162.532694,70.7526905 C161.741164,72.4143534 159.756422,73.1157827 158.122188,72.3108317 L152.860723,69.7197121 C151.226489,68.9147611 150.536754,66.8963682 151.328285,65.2347054 Z" id="Stroke-21"></path>
                        <path d="M322.381351,13.8877285 L347.175416,41.7514487 C348.391171,43.1175759 348.245437,45.2105827 346.851438,46.4022698 L342.363682,50.2391285 C340.969683,51.4310903 338.834404,51.2882417 337.618649,49.9218398 L312.824584,22.0581196 C311.608829,20.6919924 311.754563,18.5987108 313.148562,17.4070238 L317.636038,13.570165 C319.030317,12.378478 321.165596,12.5213266 322.381351,13.8877285 Z" id="Stroke-25"></path>
                        <path d="M319.997415,29.4505495 L332,43.8104368 L327.15174,48.2229657 C325.756828,49.4927603 323.620149,49.3405839 322.403597,47.8849586 L314.825246,38.8181745 C313.608694,37.3625492 313.754243,35.132873 315.149155,33.8630784 L319.997415,29.4505495 Z" id="Stroke-27"></path>
                        <path d="M210.922573,9.07097224 L246.820221,23.101997 C248.580356,23.7900243 249.454692,25.7854173 248.762903,27.5359821 L246.535653,33.1727323 C245.843864,34.9232971 243.837562,35.7928792 242.07714,35.1048519 L206.179779,21.0735422 C204.419644,20.3855149 203.545308,18.3901219 204.237097,16.6395571 L206.46406,11.0030919 C207.155849,9.25252707 209.162151,8.38294498 210.922573,9.07097224 Z" id="Stroke-33"></path>
                        <path d="M215.640664,24.5421245 L233,30.7443924 L230.596333,36.3046871 C229.904825,37.9048019 227.899621,38.6988692 226.139625,38.0701783 L215.17918,34.154012 C213.419471,33.525321 212.545488,31.7020132 213.236997,30.1024192 L215.640664,24.5421245 Z" id="Stroke-35"></path>
                    </g>
                </g>
                <g id="Group-53-Copy-2" mask="url(#mask-3)" stroke="#333740" stroke-width="2">
                    <g transform="translate(1277.000000, 50.556777) scale(-1, -1) translate(-1277.000000, -50.556777) translate(1059.000000, -4.908425)">
                        <path d="M322.381351,13.8877285 L347.175416,41.7514487 C348.391171,43.1175759 348.245437,45.2105827 346.851438,46.4022698 L342.363682,50.2391285 C340.969683,51.4310903 338.834404,51.2882417 337.618649,49.9218398 L312.824584,22.0581196 C311.608829,20.6919924 311.754563,18.5987108 313.148562,17.4070238 L317.636038,13.570165 C319.030317,12.378478 321.165596,12.5213266 322.381351,13.8877285 Z" id="Stroke-25"></path>
                        <path d="M319.997415,29.4505495 L332,43.8104368 L327.15174,48.2229657 C325.756828,49.4927603 323.620149,49.3405839 322.403597,47.8849586 L314.825246,38.8181745 C313.608694,37.3625492 313.754243,35.132873 315.149155,33.8630784 L319.997415,29.4505495 Z" id="Stroke-27"></path>
                        <path d="M380.7736,87.5588124 L362.399687,54.6703625 C361.498831,53.0576296 362.172925,51.0487432 363.897967,50.2065382 L369.451719,47.4946657 C371.176761,46.652185 373.325545,47.2826671 374.226695,48.8954001 L392.600313,81.7838499 C393.501169,83.3965829 392.827075,85.4051936 391.102033,86.2476743 L385.548281,88.9595468 C383.823239,89.8020275 381.67475,89.1715454 380.7736,87.5588124 Z" id="Stroke-29"></path>
                        <path d="M388.474279,73.6263736 L380,58.1795137 L385.716146,55.3371245 C387.360737,54.5194692 389.409025,55.1313055 390.268148,56.6972961 L395.61883,66.4502776 C396.477953,68.0160005 395.835016,69.9663291 394.190426,70.7839844 L388.474279,73.6263736 Z" id="Stroke-31"></path>
                        <path d="M257.802621,57.0251689 L291.929789,38.7006198 C293.603556,37.8017311 295.72054,38.4126346 296.634712,40.0576152 L299.578035,45.3535323 C300.492207,46.9985128 299.871009,49.0797312 298.197531,49.9783359 L264.069786,68.3031691 C262.396307,69.2017737 260.279034,68.5911542 259.364862,66.9461737 L256.421828,61.6499726 C255.507945,60.0049921 256.128854,57.9237736 257.802621,57.0251689 Z" id="Stroke-37"></path>
                        <path d="M273,63.4884124 L288.599286,54.974359 L291.601374,60.4653697 C292.46512,62.0454912 291.877915,64.0440325 290.296747,64.9070576 L280.447211,70.2829619 C278.866043,71.145987 276.865834,70.5595445 276.002089,68.9796959 L273,63.4884124 Z" id="Stroke-39"></path>
                        <path d="M335.401025,107.915158 L332.013689,70.8963243 C331.84752,69.0810502 333.213737,67.4613053 335.049417,67.2969834 L340.959171,66.7681153 C342.795131,66.6037933 344.433083,67.9548235 344.599252,69.7700976 L347.986309,106.788931 C348.152478,108.604205 346.78654,110.22395 344.950581,110.388272 L339.040547,110.916864 C337.204867,111.081186 335.567194,109.730432 335.401025,107.915158 Z" id="Stroke-45"></path>
                        <path d="M347.628405,97.1868132 L346,78.1732943 L352.340983,77.567531 C354.165341,77.3927804 355.793192,78.8271433 355.958336,80.7543853 L356.986393,92.7594051 C357.151538,94.6869402 355.794024,96.4065925 353.969666,96.5810499 L347.628405,97.1868132 Z" id="Stroke-47"></path>
                        <path d="M435.609252,42.8124919 L417.35837,75.7602526 C416.463422,77.3758945 414.302587,78.0198955 412.556977,77.1915799 L406.93732,74.5247941 C405.19171,73.6964785 404.495606,71.6968018 405.390554,70.0811599 L423.641436,37.1333992 C424.536682,35.5177573 426.69722,34.8740314 428.44283,35.7020719 L434.062784,38.3691328 C435.808394,39.1971733 436.504498,41.19685 435.609252,42.8124919 Z" id="Stroke-49"></path>
                        <path d="M420,43.5663421 L411.607978,59.8827839 L405.841252,56.9360244 C404.182114,56.0878172 403.520493,54.0407993 404.371391,52.386908 L409.67001,42.0845141 C410.520625,40.4306228 412.574137,39.7710938 414.233274,40.619301 L420,43.5663421 Z" id="Stroke-51"></path>
                    </g>
                </g>
                <g id="Group-53-Copy-3" mask="url(#mask-3)" stroke="#333740" stroke-width="2">
                    <g transform="translate(801.000000, 32.886447) scale(-1, -1) translate(-801.000000, -32.886447) translate(583.000000, -22.578755)">
                        <path d="M39.6342521,21.419493 L9.03381248,43.525622 C7.53315429,44.6095602 5.39020758,44.3066951 4.27180321,42.8522831 L0.671017546,38.1702415 C-0.447670393,36.7158295 -0.134891484,34.6391973 1.36548314,33.5549842 L31.9662063,11.4488552 C33.4665809,10.3646422 35.6095276,10.6677821 36.727932,12.1221941 L40.3290012,16.8042357 C41.4476892,18.2586478 41.1349103,20.3355548 39.6342521,21.419493 Z" id="Stroke-1"></path>
                        <path d="M25,17.4001918 L9.70880451,28.4688645 L5.6929764,23.2374716 C4.53773016,21.7321412 4.86051955,19.5825226 6.41061162,18.4606362 L16.065588,11.4716023 C17.6156801,10.3497159 19.8292186,10.6628997 20.9844648,12.1682301 L25,17.4001918 Z" id="Stroke-3"></path>
                        <path d="M66.4315082,73.118373 L33.6111487,53.2917026 C32.001683,52.3192194 31.5153551,50.262394 32.5300997,48.7203963 L35.797174,43.7560643 C36.8119186,42.2140666 38.9590261,41.7481254 40.5684918,42.7203324 L73.3888513,62.547279 C74.998317,63.5192098 75.4846449,65.5763115 74.4699003,67.1183091 L71.202826,72.0826411 C70.1880814,73.6246388 68.0409739,74.0908562 66.4315082,73.118373 Z" id="Stroke-5"></path>
                        <path d="M65.929591,55.956044 L50,46.8224007 L53.5386558,41.7190485 C54.5567243,40.2506907 56.7108648,39.8070009 58.3256025,40.7325161 L68.3833676,46.4996933 C69.9981053,47.4254715 70.4863154,49.384334 69.4682469,50.8526918 L65.929591,55.956044 Z" id="Stroke-7"></path>
                        <path d="M20.9688292,68.6073563 L37.6615996,101.739782 C38.4801132,103.364178 37.7620587,105.335155 36.0653837,106.119064 L30.6040595,108.642986 C28.9073845,109.426894 26.8493991,108.738925 26.0308854,107.114255 L9.33840044,73.9821028 C8.51988675,72.3574337 9.2379413,70.3867297 10.9346163,69.6028214 L16.3962259,67.0786257 C18.0926155,66.2947174 20.1503155,66.9826872 20.9688292,68.6073563 Z" id="Stroke-9"></path>
                        <path d="M13.3692323,82.4615385 L22,98.957709 L15.6983439,101.761689 C13.8850165,102.568453 11.6858422,101.860706 10.8110528,100.18867 L5.36161484,89.7730414 C4.48682541,88.1010048 5.25455379,86.0728448 7.06757623,85.2658002 L13.3692323,82.4615385 Z" id="Stroke-11"></path>
                        <path d="M167.693138,17.4335338 L132.158087,29.2850826 C130.415442,29.8662519 128.530211,28.8669277 127.968469,27.0640114 L126.159802,21.2600673 C125.598338,19.457151 126.564255,17.5067181 128.307179,16.9252618 L163.841952,5.07399994 C165.58432,4.49254364 167.469829,5.49215485 168.03157,7.29507117 L169.83996,13.0990153 C170.401979,14.9019316 169.435784,16.8523645 167.693138,17.4335338 Z" id="Stroke-13"></path>
                        <path d="M156,8.26609545 L138.188488,13.7435897 L136.16568,7.7574984 C135.58367,6.03512283 136.584727,4.17154646 138.389964,3.61661361 L149.636118,0.158153654 C151.441642,-0.397327547 153.395183,0.557902712 153.976905,2.28000411 L156,8.26609545 Z" id="Stroke-15"></path>
                        <path d="M110.556111,28.358272 L126.673269,61.4904247 C127.463558,63.1150938 126.770264,65.0857977 125.132095,65.869706 L119.859092,68.3939017 C118.220923,69.17781 116.234178,68.4898403 115.443889,66.8651712 L99.3267315,33.7330186 C98.5364424,32.1083494 99.2297364,30.1376455 100.867905,29.3537372 L106.141184,26.8295415 C107.779077,26.0456332 109.765822,26.7336029 110.556111,28.358272 Z" id="Stroke-17"></path>
                        <path d="M102.876925,42.2124542 L111,58.7082806 L105.06903,61.5125317 C103.362656,62.3195732 101.292557,61.611267 100.469226,59.9395182 L95.3403434,49.523648 C94.5170121,47.8518991 95.23958,45.8234655 96.9459541,45.0167053 L102.876925,42.2124542 Z" id="Stroke-19"></path>
                        <path d="M151.328285,65.2347054 L167.467587,31.3425475 C168.258842,29.6808847 170.243584,28.9794554 171.877819,29.7844064 L177.139008,32.375526 C178.773517,33.180477 179.463252,35.1983103 178.671721,36.8605327 L162.532694,70.7526905 C161.741164,72.4143534 159.756422,73.1157827 158.122188,72.3108317 L152.860723,69.7197121 C151.226489,68.9147611 150.536754,66.8963682 151.328285,65.2347054 Z" id="Stroke-21"></path>
                        <path d="M167,61.8005304 L175.139273,46.1391941 L181.060178,48.8113731 C182.764033,49.5799686 183.482744,51.5078712 182.657919,53.0955715 L177.51882,62.9838896 C176.693708,64.5713226 174.624761,65.2410376 172.921192,64.4724421 L167,61.8005304 Z" id="Stroke-23"></path>
                        <path d="M322.381351,13.8877285 L347.175416,41.7514487 C348.391171,43.1175759 348.245437,45.2105827 346.851438,46.4022698 L342.363682,50.2391285 C340.969683,51.4310903 338.834404,51.2882417 337.618649,49.9218398 L312.824584,22.0581196 C311.608829,20.6919924 311.754563,18.5987108 313.148562,17.4070238 L317.636038,13.570165 C319.030317,12.378478 321.165596,12.5213266 322.381351,13.8877285 Z" id="Stroke-25"></path>
                        <path d="M319.997415,29.4505495 L332,43.8104368 L327.15174,48.2229657 C325.756828,49.4927603 323.620149,49.3405839 322.403597,47.8849586 L314.825246,38.8181745 C313.608694,37.3625492 313.754243,35.132873 315.149155,33.8630784 L319.997415,29.4505495 Z" id="Stroke-27"></path>
                        <path d="M380.7736,87.5588124 L362.399687,54.6703625 C361.498831,53.0576296 362.172925,51.0487432 363.897967,50.2065382 L369.451719,47.4946657 C371.176761,46.652185 373.325545,47.2826671 374.226695,48.8954001 L392.600313,81.7838499 C393.501169,83.3965829 392.827075,85.4051936 391.102033,86.2476743 L385.548281,88.9595468 C383.823239,89.8020275 381.67475,89.1715454 380.7736,87.5588124 Z" id="Stroke-29"></path>
                        <path d="M388.474279,73.6263736 L380,58.1795137 L385.716146,55.3371245 C387.360737,54.5194692 389.409025,55.1313055 390.268148,56.6972961 L395.61883,66.4502776 C396.477953,68.0160005 395.835016,69.9663291 394.190426,70.7839844 L388.474279,73.6263736 Z" id="Stroke-31"></path>
                        <path d="M210.922573,9.07097224 L246.820221,23.101997 C248.580356,23.7900243 249.454692,25.7854173 248.762903,27.5359821 L246.535653,33.1727323 C245.843864,34.9232971 243.837562,35.7928792 242.07714,35.1048519 L206.179779,21.0735422 C204.419644,20.3855149 203.545308,18.3901219 204.237097,16.6395571 L206.46406,11.0030919 C207.155849,9.25252707 209.162151,8.38294498 210.922573,9.07097224 Z" id="Stroke-33"></path>
                        <path d="M215.640664,24.5421245 L233,30.7443924 L230.596333,36.3046871 C229.904825,37.9048019 227.899621,38.6988692 226.139625,38.0701783 L215.17918,34.154012 C213.419471,33.525321 212.545488,31.7020132 213.236997,30.1024192 L215.640664,24.5421245 Z" id="Stroke-35"></path>
                        <path d="M257.802621,57.0251689 L291.929789,38.7006198 C293.603556,37.8017311 295.72054,38.4126346 296.634712,40.0576152 L299.578035,45.3535323 C300.492207,46.9985128 299.871009,49.0797312 298.197531,49.9783359 L264.069786,68.3031691 C262.396307,69.2017737 260.279034,68.5911542 259.364862,66.9461737 L256.421828,61.6499726 C255.507945,60.0049921 256.128854,57.9237736 257.802621,57.0251689 Z" id="Stroke-37"></path>
                        <path d="M273,63.4884124 L288.599286,54.974359 L291.601374,60.4653697 C292.46512,62.0454912 291.877915,64.0440325 290.296747,64.9070576 L280.447211,70.2829619 C278.866043,71.145987 276.865834,70.5595445 276.002089,68.9796959 L273,63.4884124 Z" id="Stroke-39"></path>
                        <path d="M206.082913,61.1653547 L243.809597,57.9320133 C245.659634,57.7734945 247.305674,59.1294653 247.466902,60.9452511 L247.987163,66.7911146 C248.148672,68.6066242 246.767123,70.2221902 244.917368,70.380709 L207.190403,73.6137742 C205.340085,73.772293 203.694607,72.4163222 203.532817,70.6008126 L203.012837,64.7549491 C202.851328,62.9391633 204.232877,61.3235973 206.082913,61.1653547 Z" id="Stroke-41"></path>
                        <path d="M215,74.0532961 L234.389956,72.6446886 L234.986317,78.3278627 C235.1582,79.9632798 233.690465,81.4178958 231.725014,81.5606466 L219.482124,82.450228 C217.516674,82.5927301 215.768245,81.3718873 215.59666,79.7367188 L215,74.0532961 Z" id="Stroke-43"></path>
                        <path d="M335.401025,107.915158 L332.013689,70.8963243 C331.84752,69.0810502 333.213737,67.4613053 335.049417,67.2969834 L340.959171,66.7681153 C342.795131,66.6037933 344.433083,67.9548235 344.599252,69.7700976 L347.986309,106.788931 C348.152478,108.604205 346.78654,110.22395 344.950581,110.388272 L339.040547,110.916864 C337.204867,111.081186 335.567194,109.730432 335.401025,107.915158 Z" id="Stroke-45"></path>
                        <path d="M347.628405,97.1868132 L346,78.1732943 L352.340983,77.567531 C354.165341,77.3927804 355.793192,78.8271433 355.958336,80.7543853 L356.986393,92.7594051 C357.151538,94.6869402 355.794024,96.4065925 353.969666,96.5810499 L347.628405,97.1868132 Z" id="Stroke-47"></path>
                        <path d="M435.609252,42.8124919 L417.35837,75.7602526 C416.463422,77.3758945 414.302587,78.0198955 412.556977,77.1915799 L406.93732,74.5247941 C405.19171,73.6964785 404.495606,71.6968018 405.390554,70.0811599 L423.641436,37.1333992 C424.536682,35.5177573 426.69722,34.8740314 428.44283,35.7020719 L434.062784,38.3691328 C435.808394,39.1971733 436.504498,41.19685 435.609252,42.8124919 Z" id="Stroke-49"></path>
                        <path d="M420,43.5663421 L411.607978,59.8827839 L405.841252,56.9360244 C404.182114,56.0878172 403.520493,54.0407993 404.371391,52.386908 L409.67001,42.0845141 C410.520625,40.4306228 412.574137,39.7710938 414.233274,40.619301 L420,43.5663421 Z" id="Stroke-51"></path>
                    </g>
                </g>
            </g>
        </g>
    </g>
</svg>